<svg width="83" height="18" viewBox="0 0 83 18" fill="none" xmlns="http://www.w3.org/2000/svg">
<path d="M0.4 16.92C0.96 16.72 1.38 16.38 1.66 15.9C1.94 15.4333 2.12 14.8867 2.2 14.26C2.28 13.6333 2.32 12.86 2.32 11.94V10.78V1.2C2.32 0.919999 2.24667 0.753333 2.1 0.699999C1.96667 0.633333 1.79333 0.599999 1.58 0.599999V0.339999H4.32V0.599999C4.10667 0.599999 3.92667 0.633333 3.78 0.699999C3.64667 0.753333 3.58 0.919999 3.58 1.2V12.4C3.58 13.84 3.31333 14.9333 2.78 15.68C2.26 16.44 1.46667 16.9333 0.4 17.16V16.92ZM5.12656 13.56C5.39323 13.56 5.6399 13.4933 5.86656 13.36C6.09323 13.2133 6.2599 13.02 6.36656 12.78L11.0066 2L10.6666 1.2L11.8866 0.339999C14.3932 6.5 16.0599 10.5667 16.8866 12.54C16.9666 12.78 17.1266 12.9933 17.3666 13.18C17.6599 13.42 17.9399 13.54 18.2066 13.54V13.78H14.6266V13.54H14.7466C14.9732 13.54 15.1399 13.4867 15.2466 13.38C15.3666 13.2733 15.4266 13.1333 15.4266 12.96C15.4266 12.8933 15.3999 12.78 15.3466 12.62L13.6866 8.58H8.54656L6.50656 13.34L6.38656 13.56H7.52656V13.78H5.12656V13.56ZM13.5066 8.12L11.1866 2.46L8.74656 8.12H13.5066ZM20.3008 13.54C20.4741 13.54 20.6408 13.5 20.8008 13.42C20.9608 13.3267 21.0408 13.1667 21.0408 12.94V6.96C19.4141 4.21333 18.3408 2.42 17.8208 1.58C17.5674 1.18 17.3408 0.919999 17.1408 0.799999C16.9541 0.666666 16.6408 0.599999 16.2008 0.599999V0.339999H19.7808V0.599999H19.6608C19.3008 0.599999 19.1208 0.706666 19.1208 0.919999C19.1208 1.08 19.1941 1.27333 19.3408 1.5C19.6474 1.98 20.2141 2.92 21.0408 4.32C21.6674 5.37333 22.1008 6.10667 22.3408 6.52L26.2608 0.559999H25.1208V0.339999H27.5208V0.559999C27.0808 0.559999 26.6874 0.753332 26.3408 1.14L22.5008 7.08V12.94C22.5008 13.1667 22.5808 13.3267 22.7408 13.42C22.9008 13.5 23.0674 13.54 23.2408 13.54V13.78H20.3008V13.54Z" fill="url(#paint0_linear_126_264)"/>
<path d="M30.107 16.92C30.667 16.72 31.087 16.38 31.367 15.9C31.647 15.4333 31.827 14.8867 31.907 14.26C31.987 13.6333 32.027 12.86 32.027 11.94V10.78V1.2C32.027 0.919999 31.9537 0.753333 31.807 0.699999C31.6737 0.633333 31.5004 0.599999 31.287 0.599999V0.339999H34.027V0.599999C33.8137 0.599999 33.6337 0.633333 33.487 0.699999C33.3537 0.753333 33.287 0.919999 33.287 1.2V12.4C33.287 13.84 33.0204 14.9333 32.487 15.68C31.967 16.44 31.1737 16.9333 30.107 17.16V16.92ZM41.5536 13.78C40.3269 13.78 39.2003 13.48 38.1736 12.88C37.1469 12.28 36.3336 11.4667 35.7336 10.44C35.1336 9.41333 34.8336 8.28667 34.8336 7.06C34.8336 5.83333 35.1336 4.70667 35.7336 3.68C36.3336 2.65333 37.1469 1.84 38.1736 1.24C39.2003 0.639999 40.3269 0.339999 41.5536 0.339999C42.7803 0.339999 43.9069 0.639999 44.9336 1.24C45.9603 1.84 46.7736 2.65333 47.3736 3.68C47.9736 4.70667 48.2736 5.83333 48.2736 7.06C48.2736 8.28667 47.9736 9.41333 47.3736 10.44C46.7736 11.4667 45.9603 12.28 44.9336 12.88C43.9069 13.48 42.7803 13.78 41.5536 13.78ZM43.2536 13.28C43.9869 13.08 44.6336 12.7133 45.1936 12.18C45.7536 11.6333 46.1869 10.9733 46.4936 10.2C46.8003 9.41333 46.9536 8.58 46.9536 7.7C46.9536 7.04667 46.8603 6.36667 46.6736 5.66C46.4069 4.68667 45.9803 3.82667 45.3936 3.08C44.8203 2.32 44.1536 1.73333 43.3936 1.32C42.6336 0.893333 41.8469 0.68 41.0336 0.68C40.6469 0.68 40.2536 0.733333 39.8536 0.84C39.1203 1.04 38.4736 1.41333 37.9136 1.96C37.3536 2.49333 36.9203 3.15333 36.6136 3.94C36.3069 4.71333 36.1536 5.54 36.1536 6.42C36.1536 7.07333 36.2469 7.75333 36.4336 8.46C36.7003 9.43333 37.1203 10.3 37.6936 11.06C38.2803 11.8067 38.9536 12.3933 39.7136 12.82C40.4736 13.2333 41.2603 13.44 42.0736 13.44C42.4603 13.44 42.8536 13.3867 43.2536 13.28ZM49.5919 13.54C49.7785 13.54 49.9452 13.5 50.0919 13.42C50.2519 13.3267 50.3319 13.1667 50.3319 12.94V1.74L49.8719 1.1C49.6719 0.766666 49.4052 0.599999 49.0719 0.599999V0.339999H51.1519L60.0319 11.66V0.58H59.2719V0.339999H61.2719L61.2519 0.58C61.0785 0.58 60.9119 0.626666 60.7519 0.719999C60.6052 0.8 60.5252 0.953333 60.5119 1.18V13.78H59.6919L50.8319 2.46V13.54H51.5919V13.78H49.5919V13.54ZM62.2797 13.54C62.4664 13.54 62.6397 13.5 62.7997 13.42C62.9597 13.3267 63.0397 13.16 63.0397 12.92V1.2C63.0397 0.919999 62.9664 0.753333 62.8197 0.699999C62.6864 0.633333 62.5064 0.599999 62.2797 0.599999V0.339999H71.0797L71.3797 1.74H71.2197C70.993 1.27333 70.613 0.966666 70.0797 0.819999C69.5597 0.659999 68.8397 0.58 67.9197 0.58L65.9397 0.599999H64.4797V6.62H67.4797C67.9464 6.62 68.333 6.54 68.6397 6.38C68.9464 6.20667 69.0997 6.02 69.0997 5.82H69.2597V7.76H69.0997V7.7C69.0997 7.5 68.9464 7.32 68.6397 7.16C68.333 6.98667 67.9464 6.9 67.4797 6.9H64.4797V13.54H66.1397L68.1197 13.56C69.1197 13.56 69.9064 13.4867 70.4797 13.34C71.053 13.18 71.4797 12.8667 71.7597 12.4H71.9197L71.6197 13.78H62.2797V13.54ZM77.1289 13.78C75.9289 13.78 74.8222 13.5667 73.8089 13.14C73.6089 13.0467 73.3889 12.9333 73.1489 12.8C72.9089 12.6667 72.7889 12.58 72.7889 12.54L72.5289 10.78L72.6889 10.76L72.7889 11.06C73.2156 12.0467 73.7756 12.7133 74.4689 13.06C75.0956 13.3667 75.9956 13.52 77.1689 13.52C77.4756 13.52 77.7022 13.5133 77.8489 13.5C78.9289 13.4067 79.8022 13.1 80.4689 12.58C80.8556 12.2733 81.1489 11.9 81.3489 11.46C81.5489 11.02 81.6489 10.54 81.6489 10.02C81.6489 9.43333 81.4556 8.94 81.0689 8.54C80.6822 8.12667 80.2022 7.78667 79.6289 7.52C79.0556 7.25333 78.2956 6.96 77.3489 6.64C76.3756 6.30667 75.5956 6.00667 75.0089 5.74C74.4356 5.47333 73.9489 5.13333 73.5489 4.72C73.1489 4.29333 72.9489 3.77333 72.9489 3.16C72.9489 2.61333 73.1022 2.15333 73.4089 1.78C73.7289 1.39333 74.1622 1.08667 74.7089 0.86C75.5222 0.513333 76.4356 0.339999 77.4489 0.339999C78.1822 0.339999 78.8889 0.433333 79.5689 0.619999C80.2489 0.806666 80.8489 1.07333 81.3689 1.42C81.5289 1.5 81.6156 1.56 81.6289 1.6L81.8889 3.36L81.7289 3.38L81.6089 3.08C81.4622 2.73333 81.2889 2.40667 81.0889 2.1C80.6889 1.52667 80.1756 1.14 79.5489 0.94C78.9222 0.726666 78.1956 0.619999 77.3689 0.619999C76.4222 0.619999 75.5956 0.786666 74.8889 1.12C74.1822 1.45333 73.8289 2.03333 73.8289 2.86C73.8289 3.28667 74.0689 3.63333 74.5489 3.9C75.0289 4.15333 75.7956 4.45333 76.8489 4.8C78.0089 5.17333 78.9689 5.54 79.7289 5.9C80.4889 6.24667 81.1422 6.76 81.6889 7.44C82.2489 8.10667 82.5289 8.96667 82.5289 10.02C82.5289 10.6333 82.3489 11.2 81.9889 11.72C81.6289 12.24 81.1622 12.66 80.5889 12.98C79.6422 13.5133 78.4889 13.78 77.1289 13.78Z" fill="#1A1A1A"/>
<defs>
<linearGradient id="paint0_linear_126_264" x1="0" y1="7" x2="349.845" y2="7" gradientUnits="userSpaceOnUse">
<stop stop-color="#C7A77B"/>
<stop offset="1" stop-color="white" stop-opacity="0"/>
</linearGradient>
</defs>
</svg>
