<svg width="62" height="46" viewBox="0 0 62 46" fill="none" xmlns="http://www.w3.org/2000/svg">
<path d="M14.771 18.4166C14.0927 18.4166 13.4418 18.52 12.7939 18.6143C13.0038 17.9086 13.2197 17.1908 13.5665 16.5459C13.9132 15.6091 14.4546 14.797 14.993 13.9788C15.4432 13.0936 16.2371 12.4944 16.8211 11.7371C17.4324 11.001 18.2658 10.5113 18.9259 9.89989C19.5738 9.26114 20.4224 8.94177 21.0976 8.4916C21.8033 8.08706 22.4177 7.63994 23.0747 7.42702L24.7142 6.75177L26.1559 6.15256L24.6807 0.257812L22.8648 0.695811C22.2839 0.841811 21.5752 1.01214 20.7691 1.21594C19.9448 1.36802 19.0658 1.78473 18.0864 2.16494C17.1191 2.59685 15.9998 2.88885 14.9596 3.58235C13.9132 4.24544 12.7057 4.79902 11.6411 5.68719C10.61 6.60273 9.36593 7.3966 8.44734 8.56156C7.44359 9.65048 6.45201 10.7941 5.68247 12.096C4.79126 13.337 4.18597 14.6996 3.54722 16.0471C2.9693 17.3946 2.50393 18.7724 2.12372 20.1108C1.40285 22.7935 1.08043 25.3424 0.95572 27.5233C0.852303 29.7072 0.913137 31.5231 1.04089 32.8371C1.08651 33.4576 1.17168 34.0599 1.23251 34.4766L1.30855 34.9876L1.38764 34.9693C1.92863 37.4964 3.17402 39.8187 4.97973 41.6676C6.78545 43.5165 9.0777 44.8164 11.5913 45.4169C14.105 46.0174 16.7372 45.8941 19.1837 45.0611C21.6301 44.2281 23.7907 42.7195 25.4156 40.7098C27.0405 38.7001 28.0632 36.2715 28.3654 33.7049C28.6677 31.1382 28.2371 28.5385 27.1236 26.2063C26.01 23.8742 24.259 21.9049 22.073 20.5264C19.887 19.1479 17.3553 18.4164 14.771 18.4166ZM48.2293 18.4166C47.551 18.4166 46.9001 18.52 46.2522 18.6143C46.4621 17.9086 46.6781 17.1908 47.0248 16.5459C47.3716 15.6091 47.913 14.797 48.4513 13.9788C48.9015 13.0936 49.6954 12.4944 50.2794 11.7371C50.8908 11.001 51.7242 10.5113 52.3842 9.89989C53.0321 9.26114 53.8807 8.94177 54.556 8.4916C55.2616 8.08706 55.8761 7.63994 56.5331 7.42702L58.1725 6.75177L59.6143 6.15256L58.1391 0.257812L56.3232 0.695811C55.7422 0.841811 55.0335 1.01214 54.2275 1.21594C53.4032 1.36802 52.5241 1.78473 51.5447 2.16494C50.5805 2.5999 49.4581 2.88885 48.4179 3.5854C47.3716 4.24848 46.164 4.80206 45.0994 5.69023C44.0683 6.60577 42.8243 7.39965 41.9057 8.56156C40.9019 9.65048 39.9103 10.7941 39.1408 12.096C38.2496 13.337 37.6443 14.6996 37.0056 16.0471C36.4276 17.3946 35.9623 18.7724 35.5821 20.1108C34.8612 22.7935 34.5388 25.3424 34.4141 27.5233C34.3106 29.7072 34.3715 31.5231 34.4992 32.8371C34.5448 33.4576 34.63 34.0599 34.6908 34.4766L34.7669 34.9876L34.846 34.9693C35.387 37.4964 36.6324 39.8187 38.4381 41.6676C40.2438 43.5165 42.536 44.8164 45.0497 45.4169C47.5633 46.0174 50.1956 45.8941 52.642 45.0611C55.0885 44.2281 57.2491 42.7195 58.8739 40.7098C60.4988 38.7001 61.5215 36.2715 61.8238 33.7049C62.126 31.1382 61.6955 28.5385 60.5819 26.2063C59.4684 23.8742 57.7173 21.9049 55.5313 20.5264C53.3453 19.1479 50.8137 18.4164 48.2293 18.4166Z" fill="url(#paint0_linear_14_325)" fill-opacity="0.15"/>
<defs>
<linearGradient id="paint0_linear_14_325" x1="0.398791" y1="23.0247" x2="829.845" y2="23.0247" gradientUnits="userSpaceOnUse">
<stop stop-color="#9579DF"/>
<stop offset="0.0001" stop-color="#9579DF"/>
<stop offset="1" stop-color="white" stop-opacity="0"/>
</linearGradient>
</defs>
</svg>
