<svg width="1440" height="501" viewBox="0 0 1440 501" fill="none" xmlns="http://www.w3.org/2000/svg">
<mask id="path-1-inside-1_74_1957" fill="white">
<path d="M0 0H1440V501H0V0Z"/>
</mask>
<path d="M0 0H1440V501H0V0Z" fill="#DECBB1" fill-opacity="0.17"/>
<path d="M0 502H1V500H0V502ZM3 502H5V500H3V502ZM7 502H9V500H7V502ZM11 502H13V500H11V502ZM15 502H17V500H15V502ZM19 502H21V500H19V502ZM23 502H25V500H23V502ZM27 502H29V500H27V502ZM31 502H33V500H31V502ZM35 502H37V500H35V502ZM39 502H41V500H39V502ZM43 502H45V500H43V502ZM47 502H49V500H47V502ZM51 502H53V500H51V502ZM55 502H57V500H55V502ZM59 502H61V500H59V502ZM63 502H65V500H63V502ZM67 502H69V500H67V502ZM71 502H73V500H71V502ZM75 502H77V500H75V502ZM79 502H81V500H79V502ZM83 502H85V500H83V502ZM87 502H89V500H87V502ZM91 502H93V500H91V502ZM95 502H97V500H95V502ZM99 502H101V500H99V502ZM103 502H105V500H103V502ZM107 502H109V500H107V502ZM111 502H113V500H111V502ZM115 502H117V500H115V502ZM119 502H121V500H119V502ZM123 502H125V500H123V502ZM127 502H129V500H127V502ZM131 502H133V500H131V502ZM135 502H137V500H135V502ZM139 502H141V500H139V502ZM143 502H145V500H143V502ZM147 502H149V500H147V502ZM151 502H153V500H151V502ZM155 502H157V500H155V502ZM159 502H161V500H159V502ZM163 502H165V500H163V502ZM167 502H169V500H167V502ZM171 502H173V500H171V502ZM175 502H177V500H175V502ZM179 502H181V500H179V502ZM183 502H185V500H183V502ZM187 502H189V500H187V502ZM191 502H193V500H191V502ZM195 502H197V500H195V502ZM199 502H201V500H199V502ZM203 502H205V500H203V502ZM207 502H209V500H207V502ZM211 502H213V500H211V502ZM215 502H217V500H215V502ZM219 502H221V500H219V502ZM223 502H225V500H223V502ZM227 502H229V500H227V502ZM231 502H233V500H231V502ZM235 502H237V500H235V502ZM239 502H241V500H239V502ZM243 502H245V500H243V502ZM247 502H249V500H247V502ZM251 502H253V500H251V502ZM255 502H257V500H255V502ZM259 502H261V500H259V502ZM263 502H265V500H263V502ZM267 502H269V500H267V502ZM271 502H273V500H271V502ZM275 502H277V500H275V502ZM279 502H281V500H279V502ZM283 502H285V500H283V502ZM287 502H289V500H287V502ZM291 502H293V500H291V502ZM295 502H297V500H295V502ZM299 502H301V500H299V502ZM303 502H305V500H303V502ZM307 502H309V500H307V502ZM311 502H313V500H311V502ZM315 502H317V500H315V502ZM319 502H321V500H319V502ZM323 502H325V500H323V502ZM327 502H329V500H327V502ZM331 502H333V500H331V502ZM335 502H337V500H335V502ZM339 502H341V500H339V502ZM343 502H345V500H343V502ZM347 502H349V500H347V502ZM351 502H353V500H351V502ZM355 502H357V500H355V502ZM359 502H361V500H359V502ZM363 502H365V500H363V502ZM367 502H369V500H367V502ZM371 502H373V500H371V502ZM375 502H377V500H375V502ZM379 502H381V500H379V502ZM383 502H385V500H383V502ZM387 502H389V500H387V502ZM391 502H393V500H391V502ZM395 502H397V500H395V502ZM399 502H401V500H399V502ZM403 502H405V500H403V502ZM407 502H409V500H407V502ZM411 502H413V500H411V502ZM415 502H417V500H415V502ZM419 502H421V500H419V502ZM423 502H425V500H423V502ZM427 502H429V500H427V502ZM431 502H433V500H431V502ZM435 502H437V500H435V502ZM439 502H441V500H439V502ZM443 502H445V500H443V502ZM447 502H449V500H447V502ZM451 502H453V500H451V502ZM455 502H457V500H455V502ZM459 502H461V500H459V502ZM463 502H465V500H463V502ZM467 502H469V500H467V502ZM471 502H473V500H471V502ZM475 502H477V500H475V502ZM479 502H481V500H479V502ZM483 502H485V500H483V502ZM487 502H489V500H487V502ZM491 502H493V500H491V502ZM495 502H497V500H495V502ZM499 502H501V500H499V502ZM503 502H505V500H503V502ZM507 502H509V500H507V502ZM511 502H513V500H511V502ZM515 502H517V500H515V502ZM519 502H521V500H519V502ZM523 502H525V500H523V502ZM527 502H529V500H527V502ZM531 502H533V500H531V502ZM535 502H537V500H535V502ZM539 502H541V500H539V502ZM543 502H545V500H543V502ZM547 502H549V500H547V502ZM551 502H553V500H551V502ZM555 502H557V500H555V502ZM559 502H561V500H559V502ZM563 502H565V500H563V502ZM567 502H569V500H567V502ZM571 502H573V500H571V502ZM575 502H577V500H575V502ZM579 502H581V500H579V502ZM583 502H585V500H583V502ZM587 502H589V500H587V502ZM591 502H593V500H591V502ZM595 502H597V500H595V502ZM599 502H601V500H599V502ZM603 502H605V500H603V502ZM607 502H609V500H607V502ZM611 502H613V500H611V502ZM615 502H617V500H615V502ZM619 502H621V500H619V502ZM623 502H625V500H623V502ZM627 502H629V500H627V502ZM631 502H633V500H631V502ZM635 502H637V500H635V502ZM639 502H641V500H639V502ZM643 502H645V500H643V502ZM647 502H649V500H647V502ZM651 502H653V500H651V502ZM655 502H657V500H655V502ZM659 502H661V500H659V502ZM663 502H665V500H663V502ZM667 502H669V500H667V502ZM671 502H673V500H671V502ZM675 502H677V500H675V502ZM679 502H681V500H679V502ZM683 502H685V500H683V502ZM687 502H689V500H687V502ZM691 502H693V500H691V502ZM695 502H697V500H695V502ZM699 502H701V500H699V502ZM703 502H705V500H703V502ZM707 502H709V500H707V502ZM711 502H713V500H711V502ZM715 502H717V500H715V502ZM719 502H721V500H719V502ZM723 502H725V500H723V502ZM727 502H729V500H727V502ZM731 502H733V500H731V502ZM735 502H737V500H735V502ZM739 502H741V500H739V502ZM743 502H745V500H743V502ZM747 502H749V500H747V502ZM751 502H753V500H751V502ZM755 502H757V500H755V502ZM759 502H761V500H759V502ZM763 502H765V500H763V502ZM767 502H769V500H767V502ZM771 502H773V500H771V502ZM775 502H777V500H775V502ZM779 502H781V500H779V502ZM783 502H785V500H783V502ZM787 502H789V500H787V502ZM791 502H793V500H791V502ZM795 502H797V500H795V502ZM799 502H801V500H799V502ZM803 502H805V500H803V502ZM807 502H809V500H807V502ZM811 502H813V500H811V502ZM815 502H817V500H815V502ZM819 502H821V500H819V502ZM823 502H825V500H823V502ZM827 502H829V500H827V502ZM831 502H833V500H831V502ZM835 502H837V500H835V502ZM839 502H841V500H839V502ZM843 502H845V500H843V502ZM847 502H849V500H847V502ZM851 502H853V500H851V502ZM855 502H857V500H855V502ZM859 502H861V500H859V502ZM863 502H865V500H863V502ZM867 502H869V500H867V502ZM871 502H873V500H871V502ZM875 502H877V500H875V502ZM879 502H881V500H879V502ZM883 502H885V500H883V502ZM887 502H889V500H887V502ZM891 502H893V500H891V502ZM895 502H897V500H895V502ZM899 502H901V500H899V502ZM903 502H905V500H903V502ZM907 502H909V500H907V502ZM911 502H913V500H911V502ZM915 502H917V500H915V502ZM919 502H921V500H919V502ZM923 502H925V500H923V502ZM927 502H929V500H927V502ZM931 502H933V500H931V502ZM935 502H937V500H935V502ZM939 502H941V500H939V502ZM943 502H945V500H943V502ZM947 502H949V500H947V502ZM951 502H953V500H951V502ZM955 502H957V500H955V502ZM959 502H961V500H959V502ZM963 502H965V500H963V502ZM967 502H969V500H967V502ZM971 502H973V500H971V502ZM975 502H977V500H975V502ZM979 502H981V500H979V502ZM983 502H985V500H983V502ZM987 502H989V500H987V502ZM991 502H993V500H991V502ZM995 502H997V500H995V502ZM999 502H1001V500H999V502ZM1003 502H1005V500H1003V502ZM1007 502H1009V500H1007V502ZM1011 502H1013V500H1011V502ZM1015 502H1017V500H1015V502ZM1019 502H1021V500H1019V502ZM1023 502H1025V500H1023V502ZM1027 502H1029V500H1027V502ZM1031 502H1033V500H1031V502ZM1035 502H1037V500H1035V502ZM1039 502H1041V500H1039V502ZM1043 502H1045V500H1043V502ZM1047 502H1049V500H1047V502ZM1051 502H1053V500H1051V502ZM1055 502H1057V500H1055V502ZM1059 502H1061V500H1059V502ZM1063 502H1065V500H1063V502ZM1067 502H1069V500H1067V502ZM1071 502H1073V500H1071V502ZM1075 502H1077V500H1075V502ZM1079 502H1081V500H1079V502ZM1083 502H1085V500H1083V502ZM1087 502H1089V500H1087V502ZM1091 502H1093V500H1091V502ZM1095 502H1097V500H1095V502ZM1099 502H1101V500H1099V502ZM1103 502H1105V500H1103V502ZM1107 502H1109V500H1107V502ZM1111 502H1113V500H1111V502ZM1115 502H1117V500H1115V502ZM1119 502H1121V500H1119V502ZM1123 502H1125V500H1123V502ZM1127 502H1129V500H1127V502ZM1131 502H1133V500H1131V502ZM1135 502H1137V500H1135V502ZM1139 502H1141V500H1139V502ZM1143 502H1145V500H1143V502ZM1147 502H1149V500H1147V502ZM1151 502H1153V500H1151V502ZM1155 502H1157V500H1155V502ZM1159 502H1161V500H1159V502ZM1163 502H1165V500H1163V502ZM1167 502H1169V500H1167V502ZM1171 502H1173V500H1171V502ZM1175 502H1177V500H1175V502ZM1179 502H1181V500H1179V502ZM1183 502H1185V500H1183V502ZM1187 502H1189V500H1187V502ZM1191 502H1193V500H1191V502ZM1195 502H1197V500H1195V502ZM1199 502H1201V500H1199V502ZM1203 502H1205V500H1203V502ZM1207 502H1209V500H1207V502ZM1211 502H1213V500H1211V502ZM1215 502H1217V500H1215V502ZM1219 502H1221V500H1219V502ZM1223 502H1225V500H1223V502ZM1227 502H1229V500H1227V502ZM1231 502H1233V500H1231V502ZM1235 502H1237V500H1235V502ZM1239 502H1241V500H1239V502ZM1243 502H1245V500H1243V502ZM1247 502H1249V500H1247V502ZM1251 502H1253V500H1251V502ZM1255 502H1257V500H1255V502ZM1259 502H1261V500H1259V502ZM1263 502H1265V500H1263V502ZM1267 502H1269V500H1267V502ZM1271 502H1273V500H1271V502ZM1275 502H1277V500H1275V502ZM1279 502H1281V500H1279V502ZM1283 502H1285V500H1283V502ZM1287 502H1289V500H1287V502ZM1291 502H1293V500H1291V502ZM1295 502H1297V500H1295V502ZM1299 502H1301V500H1299V502ZM1303 502H1305V500H1303V502ZM1307 502H1309V500H1307V502ZM1311 502H1313V500H1311V502ZM1315 502H1317V500H1315V502ZM1319 502H1321V500H1319V502ZM1323 502H1325V500H1323V502ZM1327 502H1329V500H1327V502ZM1331 502H1333V500H1331V502ZM1335 502H1337V500H1335V502ZM1339 502H1341V500H1339V502ZM1343 502H1345V500H1343V502ZM1347 502H1349V500H1347V502ZM1351 502H1353V500H1351V502ZM1355 502H1357V500H1355V502ZM1359 502H1361V500H1359V502ZM1363 502H1365V500H1363V502ZM1367 502H1369V500H1367V502ZM1371 502H1373V500H1371V502ZM1375 502H1377V500H1375V502ZM1379 502H1381V500H1379V502ZM1383 502H1385V500H1383V502ZM1387 502H1389V500H1387V502ZM1391 502H1393V500H1391V502ZM1395 502H1397V500H1395V502ZM1399 502H1401V500H1399V502ZM1403 502H1405V500H1403V502ZM1407 502H1409V500H1407V502ZM1411 502H1413V500H1411V502ZM1415 502H1417V500H1415V502ZM1419 502H1421V500H1419V502ZM1423 502H1425V500H1423V502ZM1427 502H1429V500H1427V502ZM1431 502H1433V500H1431V502ZM1435 502H1437V500H1435V502ZM1439 502H1440V500H1439V502ZM1440 -1H1439V1H1440V-1ZM1437 -1H1435V1H1437V-1ZM1433 -1H1431V1H1433V-1ZM1429 -1H1427V1H1429V-1ZM1425 -1H1423V1H1425V-1ZM1421 -1H1419V1H1421V-1ZM1417 -1H1415V1H1417V-1ZM1413 -1H1411V1H1413V-1ZM1409 -1H1407V1H1409V-1ZM1405 -1H1403V1H1405V-1ZM1401 -1H1399V1H1401V-1ZM1397 -1H1395V1H1397V-1ZM1393 -1H1391V1H1393V-1ZM1389 -1H1387V1H1389V-1ZM1385 -1H1383V1H1385V-1ZM1381 -1H1379V1H1381V-1ZM1377 -1H1375V1H1377V-1ZM1373 -1H1371V1H1373V-1ZM1369 -1H1367V1H1369V-1ZM1365 -1H1363V1H1365V-1ZM1361 -1H1359V1H1361V-1ZM1357 -1H1355V1H1357V-1ZM1353 -1H1351V1H1353V-1ZM1349 -1H1347V1H1349V-1ZM1345 -1H1343V1H1345V-1ZM1341 -1H1339V1H1341V-1ZM1337 -1H1335V1H1337V-1ZM1333 -1H1331V1H1333V-1ZM1329 -1H1327V1H1329V-1ZM1325 -1H1323V1H1325V-1ZM1321 -1H1319V1H1321V-1ZM1317 -1H1315V1H1317V-1ZM1313 -1H1311V1H1313V-1ZM1309 -1H1307V1H1309V-1ZM1305 -1H1303V1H1305V-1ZM1301 -1H1299V1H1301V-1ZM1297 -1H1295V1H1297V-1ZM1293 -1H1291V1H1293V-1ZM1289 -1H1287V1H1289V-1ZM1285 -1H1283V1H1285V-1ZM1281 -1H1279V1H1281V-1ZM1277 -1H1275V1H1277V-1ZM1273 -1H1271V1H1273V-1ZM1269 -1H1267V1H1269V-1ZM1265 -1H1263V1H1265V-1ZM1261 -1H1259V1H1261V-1ZM1257 -1H1255V1H1257V-1ZM1253 -1H1251V1H1253V-1ZM1249 -1H1247V1H1249V-1ZM1245 -1H1243V1H1245V-1ZM1241 -1H1239V1H1241V-1ZM1237 -1H1235V1H1237V-1ZM1233 -1H1231V1H1233V-1ZM1229 -1H1227V1H1229V-1ZM1225 -1H1223V1H1225V-1ZM1221 -1H1219V1H1221V-1ZM1217 -1H1215V1H1217V-1ZM1213 -1H1211V1H1213V-1ZM1209 -1H1207V1H1209V-1ZM1205 -1H1203V1H1205V-1ZM1201 -1H1199V1H1201V-1ZM1197 -1H1195V1H1197V-1ZM1193 -1H1191V1H1193V-1ZM1189 -1H1187V1H1189V-1ZM1185 -1H1183V1H1185V-1ZM1181 -1H1179V1H1181V-1ZM1177 -1H1175V1H1177V-1ZM1173 -1H1171V1H1173V-1ZM1169 -1H1167V1H1169V-1ZM1165 -1H1163V1H1165V-1ZM1161 -1H1159V1H1161V-1ZM1157 -1H1155V1H1157V-1ZM1153 -1H1151V1H1153V-1ZM1149 -1H1147V1H1149V-1ZM1145 -1H1143V1H1145V-1ZM1141 -1H1139V1H1141V-1ZM1137 -1H1135V1H1137V-1ZM1133 -1H1131V1H1133V-1ZM1129 -1H1127V1H1129V-1ZM1125 -1H1123V1H1125V-1ZM1121 -1H1119V1H1121V-1ZM1117 -1H1115V1H1117V-1ZM1113 -1H1111V1H1113V-1ZM1109 -1H1107V1H1109V-1ZM1105 -1H1103V1H1105V-1ZM1101 -1H1099V1H1101V-1ZM1097 -1H1095V1H1097V-1ZM1093 -1H1091V1H1093V-1ZM1089 -1H1087V1H1089V-1ZM1085 -1H1083V1H1085V-1ZM1081 -1H1079V1H1081V-1ZM1077 -1H1075V1H1077V-1ZM1073 -1H1071V1H1073V-1ZM1069 -1H1067V1H1069V-1ZM1065 -1H1063V1H1065V-1ZM1061 -1H1059V1H1061V-1ZM1057 -1H1055V1H1057V-1ZM1053 -1H1051V1H1053V-1ZM1049 -1H1047V1H1049V-1ZM1045 -1H1043V1H1045V-1ZM1041 -1H1039V1H1041V-1ZM1037 -1H1035V1H1037V-1ZM1033 -1H1031V1H1033V-1ZM1029 -1H1027V1H1029V-1ZM1025 -1H1023V1H1025V-1ZM1021 -1H1019V1H1021V-1ZM1017 -1H1015V1H1017V-1ZM1013 -1H1011V1H1013V-1ZM1009 -1H1007V1H1009V-1ZM1005 -1H1003V1H1005V-1ZM1001 -1H999V1H1001V-1ZM997 -1H995V1H997V-1ZM993 -1H991V1H993V-1ZM989 -1H987V1H989V-1ZM985 -1H983V1H985V-1ZM981 -1H979V1H981V-1ZM977 -1H975V1H977V-1ZM973 -1H971V1H973V-1ZM969 -1H967V1H969V-1ZM965 -1H963V1H965V-1ZM961 -1H959V1H961V-1ZM957 -1H955V1H957V-1ZM953 -1H951V1H953V-1ZM949 -1H947V1H949V-1ZM945 -1H943V1H945V-1ZM941 -1H939V1H941V-1ZM937 -1H935V1H937V-1ZM933 -1H931V1H933V-1ZM929 -1H927V1H929V-1ZM925 -1H923V1H925V-1ZM921 -1H919V1H921V-1ZM917 -1H915V1H917V-1ZM913 -1H911V1H913V-1ZM909 -1H907V1H909V-1ZM905 -1H903V1H905V-1ZM901 -1H899V1H901V-1ZM897 -1H895V1H897V-1ZM893 -1H891V1H893V-1ZM889 -1H887V1H889V-1ZM885 -1H883V1H885V-1ZM881 -1H879V1H881V-1ZM877 -1H875V1H877V-1ZM873 -1H871V1H873V-1ZM869 -1H867V1H869V-1ZM865 -1H863V1H865V-1ZM861 -1H859V1H861V-1ZM857 -1H855V1H857V-1ZM853 -1H851V1H853V-1ZM849 -1H847V1H849V-1ZM845 -1H843V1H845V-1ZM841 -1H839V1H841V-1ZM837 -1H835V1H837V-1ZM833 -1H831V1H833V-1ZM829 -1H827V1H829V-1ZM825 -1H823V1H825V-1ZM821 -1H819V1H821V-1ZM817 -1H815V1H817V-1ZM813 -1H811V1H813V-1ZM809 -1H807V1H809V-1ZM805 -1H803V1H805V-1ZM801 -1H799V1H801V-1ZM797 -1H795V1H797V-1ZM793 -1H791V1H793V-1ZM789 -1H787V1H789V-1ZM785 -1H783V1H785V-1ZM781 -1H779V1H781V-1ZM777 -1H775V1H777V-1ZM773 -1H771V1H773V-1ZM769 -1H767V1H769V-1ZM765 -1H763V1H765V-1ZM761 -1H759V1H761V-1ZM757 -1H755V1H757V-1ZM753 -1H751V1H753V-1ZM749 -1H747V1H749V-1ZM745 -1H743V1H745V-1ZM741 -1H739V1H741V-1ZM737 -1H735V1H737V-1ZM733 -1H731V1H733V-1ZM729 -1H727V1H729V-1ZM725 -1H723V1H725V-1ZM721 -1H719V1H721V-1ZM717 -1H715V1H717V-1ZM713 -1H711V1H713V-1ZM709 -1H707V1H709V-1ZM705 -1H703V1H705V-1ZM701 -1H699V1H701V-1ZM697 -1H695V1H697V-1ZM693 -1H691V1H693V-1ZM689 -1H687V1H689V-1ZM685 -1H683V1H685V-1ZM681 -1H679V1H681V-1ZM677 -1H675V1H677V-1ZM673 -1H671V1H673V-1ZM669 -1H667V1H669V-1ZM665 -1H663V1H665V-1ZM661 -1H659V1H661V-1ZM657 -1H655V1H657V-1ZM653 -1H651V1H653V-1ZM649 -1H647V1H649V-1ZM645 -1H643V1H645V-1ZM641 -1H639V1H641V-1ZM637 -1H635V1H637V-1ZM633 -1H631V1H633V-1ZM629 -1H627V1H629V-1ZM625 -1H623V1H625V-1ZM621 -1H619V1H621V-1ZM617 -1H615V1H617V-1ZM613 -1H611V1H613V-1ZM609 -1H607V1H609V-1ZM605 -1H603V1H605V-1ZM601 -1H599V1H601V-1ZM597 -1H595V1H597V-1ZM593 -1H591V1H593V-1ZM589 -1H587V1H589V-1ZM585 -1H583V1H585V-1ZM581 -1H579V1H581V-1ZM577 -1H575V1H577V-1ZM573 -1H571V1H573V-1ZM569 -1H567V1H569V-1ZM565 -1H563V1H565V-1ZM561 -1H559V1H561V-1ZM557 -1H555V1H557V-1ZM553 -1H551V1H553V-1ZM549 -1H547V1H549V-1ZM545 -1H543V1H545V-1ZM541 -1H539V1H541V-1ZM537 -1H535V1H537V-1ZM533 -1H531V1H533V-1ZM529 -1H527V1H529V-1ZM525 -1H523V1H525V-1ZM521 -1H519V1H521V-1ZM517 -1H515V1H517V-1ZM513 -1H511V1H513V-1ZM509 -1H507V1H509V-1ZM505 -1H503V1H505V-1ZM501 -1H499V1H501V-1ZM497 -1H495V1H497V-1ZM493 -1H491V1H493V-1ZM489 -1H487V1H489V-1ZM485 -1H483V1H485V-1ZM481 -1H479V1H481V-1ZM477 -1H475V1H477V-1ZM473 -1H471V1H473V-1ZM469 -1H467V1H469V-1ZM465 -1H463V1H465V-1ZM461 -1H459V1H461V-1ZM457 -1H455V1H457V-1ZM453 -1H451V1H453V-1ZM449 -1H447V1H449V-1ZM445 -1H443V1H445V-1ZM441 -1H439V1H441V-1ZM437 -1H435V1H437V-1ZM433 -1H431V1H433V-1ZM429 -1H427V1H429V-1ZM425 -1H423V1H425V-1ZM421 -1H419V1H421V-1ZM417 -1H415V1H417V-1ZM413 -1H411V1H413V-1ZM409 -1H407V1H409V-1ZM405 -1H403V1H405V-1ZM401 -1H399V1H401V-1ZM397 -1H395V1H397V-1ZM393 -1H391V1H393V-1ZM389 -1H387V1H389V-1ZM385 -1H383V1H385V-1ZM381 -1H379V1H381V-1ZM377 -1H375V1H377V-1ZM373 -1H371V1H373V-1ZM369 -1H367V1H369V-1ZM365 -1H363V1H365V-1ZM361 -1H359V1H361V-1ZM357 -1H355V1H357V-1ZM353 -1H351V1H353V-1ZM349 -1H347V1H349V-1ZM345 -1H343V1H345V-1ZM341 -1H339V1H341V-1ZM337 -1H335V1H337V-1ZM333 -1H331V1H333V-1ZM329 -1H327V1H329V-1ZM325 -1H323V1H325V-1ZM321 -1H319V1H321V-1ZM317 -1H315V1H317V-1ZM313 -1H311V1H313V-1ZM309 -1H307V1H309V-1ZM305 -1H303V1H305V-1ZM301 -1H299V1H301V-1ZM297 -1H295V1H297V-1ZM293 -1H291V1H293V-1ZM289 -1H287V1H289V-1ZM285 -1H283V1H285V-1ZM281 -1H279V1H281V-1ZM277 -1H275V1H277V-1ZM273 -1H271V1H273V-1ZM269 -1H267V1H269V-1ZM265 -1H263V1H265V-1ZM261 -1H259V1H261V-1ZM257 -1H255V1H257V-1ZM253 -1H251V1H253V-1ZM249 -1H247V1H249V-1ZM245 -1H243V1H245V-1ZM241 -1H239V1H241V-1ZM237 -1H235V1H237V-1ZM233 -1H231V1H233V-1ZM229 -1H227V1H229V-1ZM225 -1H223V1H225V-1ZM221 -1H219V1H221V-1ZM217 -1H215V1H217V-1ZM213 -1H211V1H213V-1ZM209 -1H207V1H209V-1ZM205 -1H203V1H205V-1ZM201 -1H199V1H201V-1ZM197 -1H195V1H197V-1ZM193 -1H191V1H193V-1ZM189 -1H187V1H189V-1ZM185 -1H183V1H185V-1ZM181 -1H179V1H181V-1ZM177 -1H175V1H177V-1ZM173 -1H171V1H173V-1ZM169 -1H167V1H169V-1ZM165 -1H163V1H165V-1ZM161 -1H159V1H161V-1ZM157 -1H155V1H157V-1ZM153 -1H151V1H153V-1ZM149 -1H147V1H149V-1ZM145 -1H143V1H145V-1ZM141 -1H139V1H141V-1ZM137 -1H135V1H137V-1ZM133 -1H131V1H133V-1ZM129 -1H127V1H129V-1ZM125 -1H123V1H125V-1ZM121 -1H119V1H121V-1ZM117 -1H115V1H117V-1ZM113 -1H111V1H113V-1ZM109 -1H107V1H109V-1ZM105 -1H103V1H105V-1ZM101 -1H99V1H101V-1ZM97 -1H95V1H97V-1ZM93 -1H91V1H93V-1ZM89 -1H87V1H89V-1ZM85 -1H83V1H85V-1ZM81 -1H79V1H81V-1ZM77 -1H75V1H77V-1ZM73 -1H71V1H73V-1ZM69 -1H67V1H69V-1ZM65 -1H63V1H65V-1ZM61 -1H59V1H61V-1ZM57 -1H55V1H57V-1ZM53 -1H51V1H53V-1ZM49 -1H47V1H49V-1ZM45 -1H43V1H45V-1ZM41 -1H39V1H41V-1ZM37 -1H35V1H37V-1ZM33 -1H31V1H33V-1ZM29 -1H27V1H29V-1ZM25 -1H23V1H25V-1ZM21 -1H19V1H21V-1ZM17 -1H15V1H17V-1ZM13 -1H11V1H13V-1ZM9.00003 -1H7.00001V1H9.00003V-1ZM4.99998 -1H3.00004V1H4.99998V-1ZM1.00001 -1H0V1H1.00001V-1ZM0 503H1V499H0V503ZM3 503H5V499H3V503ZM7 503H9V499H7V503ZM11 503H13V499H11V503ZM15 503H17V499H15V503ZM19 503H21V499H19V503ZM23 503H25V499H23V503ZM27 503H29V499H27V503ZM31 503H33V499H31V503ZM35 503H37V499H35V503ZM39 503H41V499H39V503ZM43 503H45V499H43V503ZM47 503H49V499H47V503ZM51 503H53V499H51V503ZM55 503H57V499H55V503ZM59 503H61V499H59V503ZM63 503H65V499H63V503ZM67 503H69V499H67V503ZM71 503H73V499H71V503ZM75 503H77V499H75V503ZM79 503H81V499H79V503ZM83 503H85V499H83V503ZM87 503H89V499H87V503ZM91 503H93V499H91V503ZM95 503H97V499H95V503ZM99 503H101V499H99V503ZM103 503H105V499H103V503ZM107 503H109V499H107V503ZM111 503H113V499H111V503ZM115 503H117V499H115V503ZM119 503H121V499H119V503ZM123 503H125V499H123V503ZM127 503H129V499H127V503ZM131 503H133V499H131V503ZM135 503H137V499H135V503ZM139 503H141V499H139V503ZM143 503H145V499H143V503ZM147 503H149V499H147V503ZM151 503H153V499H151V503ZM155 503H157V499H155V503ZM159 503H161V499H159V503ZM163 503H165V499H163V503ZM167 503H169V499H167V503ZM171 503H173V499H171V503ZM175 503H177V499H175V503ZM179 503H181V499H179V503ZM183 503H185V499H183V503ZM187 503H189V499H187V503ZM191 503H193V499H191V503ZM195 503H197V499H195V503ZM199 503H201V499H199V503ZM203 503H205V499H203V503ZM207 503H209V499H207V503ZM211 503H213V499H211V503ZM215 503H217V499H215V503ZM219 503H221V499H219V503ZM223 503H225V499H223V503ZM227 503H229V499H227V503ZM231 503H233V499H231V503ZM235 503H237V499H235V503ZM239 503H241V499H239V503ZM243 503H245V499H243V503ZM247 503H249V499H247V503ZM251 503H253V499H251V503ZM255 503H257V499H255V503ZM259 503H261V499H259V503ZM263 503H265V499H263V503ZM267 503H269V499H267V503ZM271 503H273V499H271V503ZM275 503H277V499H275V503ZM279 503H281V499H279V503ZM283 503H285V499H283V503ZM287 503H289V499H287V503ZM291 503H293V499H291V503ZM295 503H297V499H295V503ZM299 503H301V499H299V503ZM303 503H305V499H303V503ZM307 503H309V499H307V503ZM311 503H313V499H311V503ZM315 503H317V499H315V503ZM319 503H321V499H319V503ZM323 503H325V499H323V503ZM327 503H329V499H327V503ZM331 503H333V499H331V503ZM335 503H337V499H335V503ZM339 503H341V499H339V503ZM343 503H345V499H343V503ZM347 503H349V499H347V503ZM351 503H353V499H351V503ZM355 503H357V499H355V503ZM359 503H361V499H359V503ZM363 503H365V499H363V503ZM367 503H369V499H367V503ZM371 503H373V499H371V503ZM375 503H377V499H375V503ZM379 503H381V499H379V503ZM383 503H385V499H383V503ZM387 503H389V499H387V503ZM391 503H393V499H391V503ZM395 503H397V499H395V503ZM399 503H401V499H399V503ZM403 503H405V499H403V503ZM407 503H409V499H407V503ZM411 503H413V499H411V503ZM415 503H417V499H415V503ZM419 503H421V499H419V503ZM423 503H425V499H423V503ZM427 503H429V499H427V503ZM431 503H433V499H431V503ZM435 503H437V499H435V503ZM439 503H441V499H439V503ZM443 503H445V499H443V503ZM447 503H449V499H447V503ZM451 503H453V499H451V503ZM455 503H457V499H455V503ZM459 503H461V499H459V503ZM463 503H465V499H463V503ZM467 503H469V499H467V503ZM471 503H473V499H471V503ZM475 503H477V499H475V503ZM479 503H481V499H479V503ZM483 503H485V499H483V503ZM487 503H489V499H487V503ZM491 503H493V499H491V503ZM495 503H497V499H495V503ZM499 503H501V499H499V503ZM503 503H505V499H503V503ZM507 503H509V499H507V503ZM511 503H513V499H511V503ZM515 503H517V499H515V503ZM519 503H521V499H519V503ZM523 503H525V499H523V503ZM527 503H529V499H527V503ZM531 503H533V499H531V503ZM535 503H537V499H535V503ZM539 503H541V499H539V503ZM543 503H545V499H543V503ZM547 503H549V499H547V503ZM551 503H553V499H551V503ZM555 503H557V499H555V503ZM559 503H561V499H559V503ZM563 503H565V499H563V503ZM567 503H569V499H567V503ZM571 503H573V499H571V503ZM575 503H577V499H575V503ZM579 503H581V499H579V503ZM583 503H585V499H583V503ZM587 503H589V499H587V503ZM591 503H593V499H591V503ZM595 503H597V499H595V503ZM599 503H601V499H599V503ZM603 503H605V499H603V503ZM607 503H609V499H607V503ZM611 503H613V499H611V503ZM615 503H617V499H615V503ZM619 503H621V499H619V503ZM623 503H625V499H623V503ZM627 503H629V499H627V503ZM631 503H633V499H631V503ZM635 503H637V499H635V503ZM639 503H641V499H639V503ZM643 503H645V499H643V503ZM647 503H649V499H647V503ZM651 503H653V499H651V503ZM655 503H657V499H655V503ZM659 503H661V499H659V503ZM663 503H665V499H663V503ZM667 503H669V499H667V503ZM671 503H673V499H671V503ZM675 503H677V499H675V503ZM679 503H681V499H679V503ZM683 503H685V499H683V503ZM687 503H689V499H687V503ZM691 503H693V499H691V503ZM695 503H697V499H695V503ZM699 503H701V499H699V503ZM703 503H705V499H703V503ZM707 503H709V499H707V503ZM711 503H713V499H711V503ZM715 503H717V499H715V503ZM719 503H721V499H719V503ZM723 503H725V499H723V503ZM727 503H729V499H727V503ZM731 503H733V499H731V503ZM735 503H737V499H735V503ZM739 503H741V499H739V503ZM743 503H745V499H743V503ZM747 503H749V499H747V503ZM751 503H753V499H751V503ZM755 503H757V499H755V503ZM759 503H761V499H759V503ZM763 503H765V499H763V503ZM767 503H769V499H767V503ZM771 503H773V499H771V503ZM775 503H777V499H775V503ZM779 503H781V499H779V503ZM783 503H785V499H783V503ZM787 503H789V499H787V503ZM791 503H793V499H791V503ZM795 503H797V499H795V503ZM799 503H801V499H799V503ZM803 503H805V499H803V503ZM807 503H809V499H807V503ZM811 503H813V499H811V503ZM815 503H817V499H815V503ZM819 503H821V499H819V503ZM823 503H825V499H823V503ZM827 503H829V499H827V503ZM831 503H833V499H831V503ZM835 503H837V499H835V503ZM839 503H841V499H839V503ZM843 503H845V499H843V503ZM847 503H849V499H847V503ZM851 503H853V499H851V503ZM855 503H857V499H855V503ZM859 503H861V499H859V503ZM863 503H865V499H863V503ZM867 503H869V499H867V503ZM871 503H873V499H871V503ZM875 503H877V499H875V503ZM879 503H881V499H879V503ZM883 503H885V499H883V503ZM887 503H889V499H887V503ZM891 503H893V499H891V503ZM895 503H897V499H895V503ZM899 503H901V499H899V503ZM903 503H905V499H903V503ZM907 503H909V499H907V503ZM911 503H913V499H911V503ZM915 503H917V499H915V503ZM919 503H921V499H919V503ZM923 503H925V499H923V503ZM927 503H929V499H927V503ZM931 503H933V499H931V503ZM935 503H937V499H935V503ZM939 503H941V499H939V503ZM943 503H945V499H943V503ZM947 503H949V499H947V503ZM951 503H953V499H951V503ZM955 503H957V499H955V503ZM959 503H961V499H959V503ZM963 503H965V499H963V503ZM967 503H969V499H967V503ZM971 503H973V499H971V503ZM975 503H977V499H975V503ZM979 503H981V499H979V503ZM983 503H985V499H983V503ZM987 503H989V499H987V503ZM991 503H993V499H991V503ZM995 503H997V499H995V503ZM999 503H1001V499H999V503ZM1003 503H1005V499H1003V503ZM1007 503H1009V499H1007V503ZM1011 503H1013V499H1011V503ZM1015 503H1017V499H1015V503ZM1019 503H1021V499H1019V503ZM1023 503H1025V499H1023V503ZM1027 503H1029V499H1027V503ZM1031 503H1033V499H1031V503ZM1035 503H1037V499H1035V503ZM1039 503H1041V499H1039V503ZM1043 503H1045V499H1043V503ZM1047 503H1049V499H1047V503ZM1051 503H1053V499H1051V503ZM1055 503H1057V499H1055V503ZM1059 503H1061V499H1059V503ZM1063 503H1065V499H1063V503ZM1067 503H1069V499H1067V503ZM1071 503H1073V499H1071V503ZM1075 503H1077V499H1075V503ZM1079 503H1081V499H1079V503ZM1083 503H1085V499H1083V503ZM1087 503H1089V499H1087V503ZM1091 503H1093V499H1091V503ZM1095 503H1097V499H1095V503ZM1099 503H1101V499H1099V503ZM1103 503H1105V499H1103V503ZM1107 503H1109V499H1107V503ZM1111 503H1113V499H1111V503ZM1115 503H1117V499H1115V503ZM1119 503H1121V499H1119V503ZM1123 503H1125V499H1123V503ZM1127 503H1129V499H1127V503ZM1131 503H1133V499H1131V503ZM1135 503H1137V499H1135V503ZM1139 503H1141V499H1139V503ZM1143 503H1145V499H1143V503ZM1147 503H1149V499H1147V503ZM1151 503H1153V499H1151V503ZM1155 503H1157V499H1155V503ZM1159 503H1161V499H1159V503ZM1163 503H1165V499H1163V503ZM1167 503H1169V499H1167V503ZM1171 503H1173V499H1171V503ZM1175 503H1177V499H1175V503ZM1179 503H1181V499H1179V503ZM1183 503H1185V499H1183V503ZM1187 503H1189V499H1187V503ZM1191 503H1193V499H1191V503ZM1195 503H1197V499H1195V503ZM1199 503H1201V499H1199V503ZM1203 503H1205V499H1203V503ZM1207 503H1209V499H1207V503ZM1211 503H1213V499H1211V503ZM1215 503H1217V499H1215V503ZM1219 503H1221V499H1219V503ZM1223 503H1225V499H1223V503ZM1227 503H1229V499H1227V503ZM1231 503H1233V499H1231V503ZM1235 503H1237V499H1235V503ZM1239 503H1241V499H1239V503ZM1243 503H1245V499H1243V503ZM1247 503H1249V499H1247V503ZM1251 503H1253V499H1251V503ZM1255 503H1257V499H1255V503ZM1259 503H1261V499H1259V503ZM1263 503H1265V499H1263V503ZM1267 503H1269V499H1267V503ZM1271 503H1273V499H1271V503ZM1275 503H1277V499H1275V503ZM1279 503H1281V499H1279V503ZM1283 503H1285V499H1283V503ZM1287 503H1289V499H1287V503ZM1291 503H1293V499H1291V503ZM1295 503H1297V499H1295V503ZM1299 503H1301V499H1299V503ZM1303 503H1305V499H1303V503ZM1307 503H1309V499H1307V503ZM1311 503H1313V499H1311V503ZM1315 503H1317V499H1315V503ZM1319 503H1321V499H1319V503ZM1323 503H1325V499H1323V503ZM1327 503H1329V499H1327V503ZM1331 503H1333V499H1331V503ZM1335 503H1337V499H1335V503ZM1339 503H1341V499H1339V503ZM1343 503H1345V499H1343V503ZM1347 503H1349V499H1347V503ZM1351 503H1353V499H1351V503ZM1355 503H1357V499H1355V503ZM1359 503H1361V499H1359V503ZM1363 503H1365V499H1363V503ZM1367 503H1369V499H1367V503ZM1371 503H1373V499H1371V503ZM1375 503H1377V499H1375V503ZM1379 503H1381V499H1379V503ZM1383 503H1385V499H1383V503ZM1387 503H1389V499H1387V503ZM1391 503H1393V499H1391V503ZM1395 503H1397V499H1395V503ZM1399 503H1401V499H1399V503ZM1403 503H1405V499H1403V503ZM1407 503H1409V499H1407V503ZM1411 503H1413V499H1411V503ZM1415 503H1417V499H1415V503ZM1419 503H1421V499H1419V503ZM1423 503H1425V499H1423V503ZM1427 503H1429V499H1427V503ZM1431 503H1433V499H1431V503ZM1435 503H1437V499H1435V503ZM1439 503H1440V499H1439V503ZM1440 -2H1439V2H1440V-2ZM1437 -2H1435V2H1437V-2ZM1433 -2H1431V2H1433V-2ZM1429 -2H1427V2H1429V-2ZM1425 -2H1423V2H1425V-2ZM1421 -2H1419V2H1421V-2ZM1417 -2H1415V2H1417V-2ZM1413 -2H1411V2H1413V-2ZM1409 -2H1407V2H1409V-2ZM1405 -2H1403V2H1405V-2ZM1401 -2H1399V2H1401V-2ZM1397 -2H1395V2H1397V-2ZM1393 -2H1391V2H1393V-2ZM1389 -2H1387V2H1389V-2ZM1385 -2H1383V2H1385V-2ZM1381 -2H1379V2H1381V-2ZM1377 -2H1375V2H1377V-2ZM1373 -2H1371V2H1373V-2ZM1369 -2H1367V2H1369V-2ZM1365 -2H1363V2H1365V-2ZM1361 -2H1359V2H1361V-2ZM1357 -2H1355V2H1357V-2ZM1353 -2H1351V2H1353V-2ZM1349 -2H1347V2H1349V-2ZM1345 -2H1343V2H1345V-2ZM1341 -2H1339V2H1341V-2ZM1337 -2H1335V2H1337V-2ZM1333 -2H1331V2H1333V-2ZM1329 -2H1327V2H1329V-2ZM1325 -2H1323V2H1325V-2ZM1321 -2H1319V2H1321V-2ZM1317 -2H1315V2H1317V-2ZM1313 -2H1311V2H1313V-2ZM1309 -2H1307V2H1309V-2ZM1305 -2H1303V2H1305V-2ZM1301 -2H1299V2H1301V-2ZM1297 -2H1295V2H1297V-2ZM1293 -2H1291V2H1293V-2ZM1289 -2H1287V2H1289V-2ZM1285 -2H1283V2H1285V-2ZM1281 -2H1279V2H1281V-2ZM1277 -2H1275V2H1277V-2ZM1273 -2H1271V2H1273V-2ZM1269 -2H1267V2H1269V-2ZM1265 -2H1263V2H1265V-2ZM1261 -2H1259V2H1261V-2ZM1257 -2H1255V2H1257V-2ZM1253 -2H1251V2H1253V-2ZM1249 -2H1247V2H1249V-2ZM1245 -2H1243V2H1245V-2ZM1241 -2H1239V2H1241V-2ZM1237 -2H1235V2H1237V-2ZM1233 -2H1231V2H1233V-2ZM1229 -2H1227V2H1229V-2ZM1225 -2H1223V2H1225V-2ZM1221 -2H1219V2H1221V-2ZM1217 -2H1215V2H1217V-2ZM1213 -2H1211V2H1213V-2ZM1209 -2H1207V2H1209V-2ZM1205 -2H1203V2H1205V-2ZM1201 -2H1199V2H1201V-2ZM1197 -2H1195V2H1197V-2ZM1193 -2H1191V2H1193V-2ZM1189 -2H1187V2H1189V-2ZM1185 -2H1183V2H1185V-2ZM1181 -2H1179V2H1181V-2ZM1177 -2H1175V2H1177V-2ZM1173 -2H1171V2H1173V-2ZM1169 -2H1167V2H1169V-2ZM1165 -2H1163V2H1165V-2ZM1161 -2H1159V2H1161V-2ZM1157 -2H1155V2H1157V-2ZM1153 -2H1151V2H1153V-2ZM1149 -2H1147V2H1149V-2ZM1145 -2H1143V2H1145V-2ZM1141 -2H1139V2H1141V-2ZM1137 -2H1135V2H1137V-2ZM1133 -2H1131V2H1133V-2ZM1129 -2H1127V2H1129V-2ZM1125 -2H1123V2H1125V-2ZM1121 -2H1119V2H1121V-2ZM1117 -2H1115V2H1117V-2ZM1113 -2H1111V2H1113V-2ZM1109 -2H1107V2H1109V-2ZM1105 -2H1103V2H1105V-2ZM1101 -2H1099V2H1101V-2ZM1097 -2H1095V2H1097V-2ZM1093 -2H1091V2H1093V-2ZM1089 -2H1087V2H1089V-2ZM1085 -2H1083V2H1085V-2ZM1081 -2H1079V2H1081V-2ZM1077 -2H1075V2H1077V-2ZM1073 -2H1071V2H1073V-2ZM1069 -2H1067V2H1069V-2ZM1065 -2H1063V2H1065V-2ZM1061 -2H1059V2H1061V-2ZM1057 -2H1055V2H1057V-2ZM1053 -2H1051V2H1053V-2ZM1049 -2H1047V2H1049V-2ZM1045 -2H1043V2H1045V-2ZM1041 -2H1039V2H1041V-2ZM1037 -2H1035V2H1037V-2ZM1033 -2H1031V2H1033V-2ZM1029 -2H1027V2H1029V-2ZM1025 -2H1023V2H1025V-2ZM1021 -2H1019V2H1021V-2ZM1017 -2H1015V2H1017V-2ZM1013 -2H1011V2H1013V-2ZM1009 -2H1007V2H1009V-2ZM1005 -2H1003V2H1005V-2ZM1001 -2H999V2H1001V-2ZM997 -2H995V2H997V-2ZM993 -2H991V2H993V-2ZM989 -2H987V2H989V-2ZM985 -2H983V2H985V-2ZM981 -2H979V2H981V-2ZM977 -2H975V2H977V-2ZM973 -2H971V2H973V-2ZM969 -2H967V2H969V-2ZM965 -2H963V2H965V-2ZM961 -2H959V2H961V-2ZM957 -2H955V2H957V-2ZM953 -2H951V2H953V-2ZM949 -2H947V2H949V-2ZM945 -2H943V2H945V-2ZM941 -2H939V2H941V-2ZM937 -2H935V2H937V-2ZM933 -2H931V2H933V-2ZM929 -2H927V2H929V-2ZM925 -2H923V2H925V-2ZM921 -2H919V2H921V-2ZM917 -2H915V2H917V-2ZM913 -2H911V2H913V-2ZM909 -2H907V2H909V-2ZM905 -2H903V2H905V-2ZM901 -2H899V2H901V-2ZM897 -2H895V2H897V-2ZM893 -2H891V2H893V-2ZM889 -2H887V2H889V-2ZM885 -2H883V2H885V-2ZM881 -2H879V2H881V-2ZM877 -2H875V2H877V-2ZM873 -2H871V2H873V-2ZM869 -2H867V2H869V-2ZM865 -2H863V2H865V-2ZM861 -2H859V2H861V-2ZM857 -2H855V2H857V-2ZM853 -2H851V2H853V-2ZM849 -2H847V2H849V-2ZM845 -2H843V2H845V-2ZM841 -2H839V2H841V-2ZM837 -2H835V2H837V-2ZM833 -2H831V2H833V-2ZM829 -2H827V2H829V-2ZM825 -2H823V2H825V-2ZM821 -2H819V2H821V-2ZM817 -2H815V2H817V-2ZM813 -2H811V2H813V-2ZM809 -2H807V2H809V-2ZM805 -2H803V2H805V-2ZM801 -2H799V2H801V-2ZM797 -2H795V2H797V-2ZM793 -2H791V2H793V-2ZM789 -2H787V2H789V-2ZM785 -2H783V2H785V-2ZM781 -2H779V2H781V-2ZM777 -2H775V2H777V-2ZM773 -2H771V2H773V-2ZM769 -2H767V2H769V-2ZM765 -2H763V2H765V-2ZM761 -2H759V2H761V-2ZM757 -2H755V2H757V-2ZM753 -2H751V2H753V-2ZM749 -2H747V2H749V-2ZM745 -2H743V2H745V-2ZM741 -2H739V2H741V-2ZM737 -2H735V2H737V-2ZM733 -2H731V2H733V-2ZM729 -2H727V2H729V-2ZM725 -2H723V2H725V-2ZM721 -2H719V2H721V-2ZM717 -2H715V2H717V-2ZM713 -2H711V2H713V-2ZM709 -2H707V2H709V-2ZM705 -2H703V2H705V-2ZM701 -2H699V2H701V-2ZM697 -2H695V2H697V-2ZM693 -2H691V2H693V-2ZM689 -2H687V2H689V-2ZM685 -2H683V2H685V-2ZM681 -2H679V2H681V-2ZM677 -2H675V2H677V-2ZM673 -2H671V2H673V-2ZM669 -2H667V2H669V-2ZM665 -2H663V2H665V-2ZM661 -2H659V2H661V-2ZM657 -2H655V2H657V-2ZM653 -2H651V2H653V-2ZM649 -2H647V2H649V-2ZM645 -2H643V2H645V-2ZM641 -2H639V2H641V-2ZM637 -2H635V2H637V-2ZM633 -2H631V2H633V-2ZM629 -2H627V2H629V-2ZM625 -2H623V2H625V-2ZM621 -2H619V2H621V-2ZM617 -2H615V2H617V-2ZM613 -2H611V2H613V-2ZM609 -2H607V2H609V-2ZM605 -2H603V2H605V-2ZM601 -2H599V2H601V-2ZM597 -2H595V2H597V-2ZM593 -2H591V2H593V-2ZM589 -2H587V2H589V-2ZM585 -2H583V2H585V-2ZM581 -2H579V2H581V-2ZM577 -2H575V2H577V-2ZM573 -2H571V2H573V-2ZM569 -2H567V2H569V-2ZM565 -2H563V2H565V-2ZM561 -2H559V2H561V-2ZM557 -2H555V2H557V-2ZM553 -2H551V2H553V-2ZM549 -2H547V2H549V-2ZM545 -2H543V2H545V-2ZM541 -2H539V2H541V-2ZM537 -2H535V2H537V-2ZM533 -2H531V2H533V-2ZM529 -2H527V2H529V-2ZM525 -2H523V2H525V-2ZM521 -2H519V2H521V-2ZM517 -2H515V2H517V-2ZM513 -2H511V2H513V-2ZM509 -2H507V2H509V-2ZM505 -2H503V2H505V-2ZM501 -2H499V2H501V-2ZM497 -2H495V2H497V-2ZM493 -2H491V2H493V-2ZM489 -2H487V2H489V-2ZM485 -2H483V2H485V-2ZM481 -2H479V2H481V-2ZM477 -2H475V2H477V-2ZM473 -2H471V2H473V-2ZM469 -2H467V2H469V-2ZM465 -2H463V2H465V-2ZM461 -2H459V2H461V-2ZM457 -2H455V2H457V-2ZM453 -2H451V2H453V-2ZM449 -2H447V2H449V-2ZM445 -2H443V2H445V-2ZM441 -2H439V2H441V-2ZM437 -2H435V2H437V-2ZM433 -2H431V2H433V-2ZM429 -2H427V2H429V-2ZM425 -2H423V2H425V-2ZM421 -2H419V2H421V-2ZM417 -2H415V2H417V-2ZM413 -2H411V2H413V-2ZM409 -2H407V2H409V-2ZM405 -2H403V2H405V-2ZM401 -2H399V2H401V-2ZM397 -2H395V2H397V-2ZM393 -2H391V2H393V-2ZM389 -2H387V2H389V-2ZM385 -2H383V2H385V-2ZM381 -2H379V2H381V-2ZM377 -2H375V2H377V-2ZM373 -2H371V2H373V-2ZM369 -2H367V2H369V-2ZM365 -2H363V2H365V-2ZM361 -2H359V2H361V-2ZM357 -2H355V2H357V-2ZM353 -2H351V2H353V-2ZM349 -2H347V2H349V-2ZM345 -2H343V2H345V-2ZM341 -2H339V2H341V-2ZM337 -2H335V2H337V-2ZM333 -2H331V2H333V-2ZM329 -2H327V2H329V-2ZM325 -2H323V2H325V-2ZM321 -2H319V2H321V-2ZM317 -2H315V2H317V-2ZM313 -2H311V2H313V-2ZM309 -2H307V2H309V-2ZM305 -2H303V2H305V-2ZM301 -2H299V2H301V-2ZM297 -2H295V2H297V-2ZM293 -2H291V2H293V-2ZM289 -2H287V2H289V-2ZM285 -2H283V2H285V-2ZM281 -2H279V2H281V-2ZM277 -2H275V2H277V-2ZM273 -2H271V2H273V-2ZM269 -2H267V2H269V-2ZM265 -2H263V2H265V-2ZM261 -2H259V2H261V-2ZM257 -2H255V2H257V-2ZM253 -2H251V2H253V-2ZM249 -2H247V2H249V-2ZM245 -2H243V2H245V-2ZM241 -2H239V2H241V-2ZM237 -2H235V2H237V-2ZM233 -2H231V2H233V-2ZM229 -2H227V2H229V-2ZM225 -2H223V2H225V-2ZM221 -2H219V2H221V-2ZM217 -2H215V2H217V-2ZM213 -2H211V2H213V-2ZM209 -2H207V2H209V-2ZM205 -2H203V2H205V-2ZM201 -2H199V2H201V-2ZM197 -2H195V2H197V-2ZM193 -2H191V2H193V-2ZM189 -2H187V2H189V-2ZM185 -2H183V2H185V-2ZM181 -2H179V2H181V-2ZM177 -2H175V2H177V-2ZM173 -2H171V2H173V-2ZM169 -2H167V2H169V-2ZM165 -2H163V2H165V-2ZM161 -2H159V2H161V-2ZM157 -2H155V2H157V-2ZM153 -2H151V2H153V-2ZM149 -2H147V2H149V-2ZM145 -2H143V2H145V-2ZM141 -2H139V2H141V-2ZM137 -2H135V2H137V-2ZM133 -2H131V2H133V-2ZM129 -2H127V2H129V-2ZM125 -2H123V2H125V-2ZM121 -2H119V2H121V-2ZM117 -2H115V2H117V-2ZM113 -2H111V2H113V-2ZM109 -2H107V2H109V-2ZM105 -2H103V2H105V-2ZM101 -2H99V2H101V-2ZM97 -2H95V2H97V-2ZM93 -2H91V2H93V-2ZM89 -2H87V2H89V-2ZM85 -2H83V2H85V-2ZM81 -2H79V2H81V-2ZM77 -2H75V2H77V-2ZM73 -2H71V2H73V-2ZM69 -2H67V2H69V-2ZM65 -2H63V2H65V-2ZM61 -2H59V2H61V-2ZM57 -2H55V2H57V-2ZM53 -2H51V2H53V-2ZM49 -2H47V2H49V-2ZM45 -2H43V2H45V-2ZM41 -2H39V2H41V-2ZM37 -2H35V2H37V-2ZM33 -2H31V2H33V-2ZM29 -2H27V2H29V-2ZM25 -2H23V2H25V-2ZM21 -2H19V2H21V-2ZM17 -2H15V2H17V-2ZM13 -2H11V2H13V-2ZM9.00003 -2H7.00001V2H9.00003V-2ZM4.99998 -2H3.00004V2H4.99998V-2ZM1.00001 -2H0V2H1.00001V-2Z" fill="url(#paint0_linear_74_1957)" mask="url(#path-1-inside-1_74_1957)"/>
<defs>
<linearGradient id="paint0_linear_74_1957" x1="0" y1="250.5" x2="6069.6" y2="250.5" gradientUnits="userSpaceOnUse">
<stop stop-color="#C7A77B"/>
<stop offset="1" stop-color="white" stop-opacity="0"/>
</linearGradient>
</defs>
</svg>
