<svg width="84" height="68" viewBox="0 0 84 68" fill="none" xmlns="http://www.w3.org/2000/svg">
<path d="M18.9869 48.6858V65.339H6.32031V49.4746C10.558 49.431 14.7883 49.1676 18.9869 48.6858Z" stroke="#9829f2" stroke-width="3" stroke-miterlimit="10"/>
<path d="M39.0416 44.5432V65.3388H26.375V47.6015C30.6801 46.8387 34.9133 45.8166 39.0416 44.5432Z" stroke="#9829f2" stroke-width="3" stroke-miterlimit="10"/>
<path d="M58.5689 35.9148V65.7795H45.9023V42.1504C50.3535 40.4147 54.5951 38.3266 58.5689 35.9148Z" stroke="#9829f2" stroke-width="3" stroke-miterlimit="10"/>
<path d="M78.0962 15.9829V65.7795H65.4297V31.0982C70.9713 26.6209 75.1601 22.0484 77.7567 16.5179L78.0962 15.9829Z" stroke="#9829f2" stroke-width="3" stroke-miterlimit="10"/>
<path d="M1.04297 41.5422C25.9591 37.9683 67.838 28.7626 79.1534 3.64394C79.4226 3.05784 79.8131 2.03987 80.0401 1.44055" stroke="#9829f2" stroke-width="3" stroke-miterlimit="10"/>
<path d="M83.8414 6.29141L82.6186 6.73521L79.8774 1.99075L74.059 4.49506L73.4141 3.56519L80.509 0.521973L83.8414 6.29141Z" fill="#9829f2"/>
</svg>
