<svg width="54" height="65" viewBox="0 0 54 65" fill="none" xmlns="http://www.w3.org/2000/svg">
<path d="M10.9487 64.4976C16.7193 64.4976 21.3974 59.7741 21.3974 53.9473C21.3974 48.1205 16.7193 43.397 10.9487 43.397C5.17804 43.397 0.5 48.1205 0.5 53.9473C0.5 59.7741 5.17804 64.4976 10.9487 64.4976Z" stroke="#9829f2" stroke-width="3" stroke-miterlimit="10"/>
<path d="M17.5078 45.728L36.2856 19.7541L43.331 10.0076L49.7793 1.08508" stroke="#9829f2" stroke-width="3" stroke-miterlimit="10"/>
<path d="M33.8359 3.01433L49.8971 0.502351C49.9429 0.495262 49.9896 0.497473 50.0345 0.508853C50.0795 0.520233 50.1217 0.540554 50.1588 0.568626C50.1959 0.596699 50.227 0.631957 50.2504 0.672337C50.2738 0.712717 50.289 0.757407 50.2951 0.803789L52.7928 16.991" stroke="#9829f2" stroke-width="3" stroke-miterlimit="10" stroke-linecap="round"/>
<path d="M13.7223 17.9555L1.27344 5.39563" stroke="#9829f2" stroke-width="3" stroke-miterlimit="10" stroke-linecap="round"/>
<path d="M1.8125 17.4632L13.7439 5.41577" stroke="#9829f2" stroke-width="3" stroke-miterlimit="10" stroke-linecap="round"/>
<path d="M49.0739 49.4156L36.625 36.8557" stroke="#9829f2" stroke-width="3" stroke-miterlimit="10" stroke-linecap="round"/>
<path d="M37.1602 48.9233L49.0916 36.8859" stroke="#9829f2" stroke-width="3" stroke-miterlimit="10" stroke-linecap="round"/>
</svg>
