<svg width="87" height="66" viewBox="0 0 87 66" fill="none" xmlns="http://www.w3.org/2000/svg">
<path d="M29.1209 34.3826C29.1209 42.3858 24.8679 48.5446 19.2811 48.5446C13.6943 48.5446 9.16797 42.0564 9.16797 34.0533C9.16797 26.0501 13.6997 22.5261 19.2811 22.5261C24.8624 22.5261 29.1209 26.3795 29.1209 34.3826Z" stroke="#9829f2" stroke-width="3" stroke-miterlimit="10"/>
<path d="M37.5944 65.6706H0.421875C2.03443 61.3565 4.64571 57.6945 7.94247 55.1241C11.2392 52.5537 15.0814 51.184 19.0081 51.1793C20.0571 51.1782 21.1045 51.2774 22.1405 51.4757C20.9055 53.4208 19.8617 55.5317 19.03 57.7663H32.8877C34.8803 59.9945 36.4809 62.6825 37.5944 65.6706Z" stroke="#9829f2" stroke-width="3" stroke-miterlimit="10"/>
<path d="M56.5793 16.8416C56.5793 27.3083 51.0144 35.3641 43.7056 35.3641C36.3968 35.3641 30.4766 26.8801 30.4766 16.4069C30.4766 5.93362 36.3968 1.32935 43.7329 1.32935C51.0691 1.32935 56.5793 6.36836 56.5793 16.8416Z" stroke="#9829f2" stroke-width="3" stroke-miterlimit="10"/>
<path d="M67.6601 57.7663H19.0078C19.8395 55.5318 20.8833 53.4208 22.1183 51.4758C24.6047 47.54 27.8121 44.3496 31.4903 42.1533C35.1685 39.957 39.218 38.8143 43.323 38.8143C47.428 38.8143 51.4776 39.957 55.1558 42.1533C58.834 44.3496 62.0413 47.54 64.5278 51.4758C65.7701 53.4197 66.8213 55.5307 67.6601 57.7663V57.7663Z" stroke="#9829f2" stroke-width="3" stroke-miterlimit="10"/>
<path d="M77.7654 34.3826C77.7654 42.3858 73.5124 48.5446 67.9256 48.5446C62.3388 48.5446 57.8125 42.0564 57.8125 34.0533C57.8125 26.0501 62.3388 22.5261 67.9256 22.5261C73.5124 22.5261 77.7654 26.3795 77.7654 34.3826Z" stroke="#9829f2" stroke-width="3" stroke-miterlimit="10"/>
<path d="M86.2428 65.6706H49.0703C50.1838 62.6825 51.7844 59.9944 53.777 57.7663H67.662C66.8305 55.5296 65.7867 53.4165 64.5516 51.4691C65.5788 51.2762 66.6169 51.1793 67.6566 51.1793C71.5833 51.184 75.4255 52.5537 78.7223 55.1241C82.019 57.6945 84.6303 61.3565 86.2428 65.6706Z" stroke="#9829f2" stroke-width="3" stroke-miterlimit="10"/>
</svg>
