<svg width="29" height="29" viewBox="0 0 29 29" fill="none" xmlns="http://www.w3.org/2000/svg">
<path d="M14.4983 9.6835C11.8462 9.6835 9.68184 11.8479 9.68184 14.5C9.68184 17.1521 11.8462 19.3165 14.4983 19.3165C17.1505 19.3165 19.3148 17.1521 19.3148 14.5C19.3148 11.8479 17.1505 9.6835 14.4983 9.6835ZM28.9442 14.5C28.9442 12.5055 28.9623 10.529 28.8503 8.53809C28.7383 6.22559 28.2107 4.17324 26.5197 2.48223C24.8251 0.787598 22.7764 0.263672 20.4639 0.151661C18.4693 0.0396489 16.4929 0.0577154 14.502 0.0577154C12.5074 0.0577154 10.531 0.0396489 8.54004 0.151661C6.22754 0.263672 4.1752 0.791211 2.48418 2.48223C0.789551 4.17686 0.265625 6.22559 0.153614 8.53809C0.041602 10.5326 0.0596685 12.5091 0.0596685 14.5C0.0596685 16.4909 0.041602 18.471 0.153614 20.4619C0.265625 22.7744 0.793165 24.8268 2.48418 26.5178C4.17881 28.2124 6.22754 28.7363 8.54004 28.8483C10.5346 28.9604 12.511 28.9423 14.502 28.9423C16.4965 28.9423 18.4729 28.9604 20.4639 28.8483C22.7764 28.7363 24.8287 28.2088 26.5197 26.5178C28.2144 24.8231 28.7383 22.7744 28.8503 20.4619C28.9659 18.471 28.9442 16.4945 28.9442 14.5ZM14.4983 21.9108C10.3973 21.9108 7.0875 18.6011 7.0875 14.5C7.0875 10.3989 10.3973 7.08916 14.4983 7.08916C18.5994 7.08916 21.9092 10.3989 21.9092 14.5C21.9092 18.6011 18.5994 21.9108 14.4983 21.9108ZM22.2127 8.51641C21.2552 8.51641 20.4819 7.74316 20.4819 6.78564C20.4819 5.82812 21.2552 5.05488 22.2127 5.05488C23.1702 5.05488 23.9435 5.82812 23.9435 6.78564C23.9437 7.01301 23.8992 7.2382 23.8123 7.44832C23.7254 7.65843 23.5979 7.84934 23.4372 8.01011C23.2764 8.17089 23.0855 8.29836 22.8754 8.38524C22.6653 8.47212 22.4401 8.51669 22.2127 8.51641Z" fill="#9579df"/>
</svg>
