<svg width="34" height="24" viewBox="0 0 34 24" fill="none" xmlns="http://www.w3.org/2000/svg">
<path d="M33.7499 0.595703L18.7855 15.4985C18.4004 15.8813 17.8794 16.0962 17.3363 16.0962C16.7933 16.0962 16.2723 15.8813 15.8872 15.4985L1.05632 0.708759C1.01073 0.876328 0.986553 1.049 0.984375 1.22265V21.7782C0.984375 22.3234 1.20094 22.8462 1.58643 23.2317C1.97192 23.6172 2.49476 23.8338 3.03993 23.8338H31.8177C32.3629 23.8338 32.8857 23.6172 33.2712 23.2317C33.6567 22.8462 33.8733 22.3234 33.8733 21.7782V1.22265C33.8651 1.00852 33.8235 0.796978 33.7499 0.595703ZM4.44799 21.7782H3.01938V20.3085L10.4913 12.8982L11.9405 14.3474L4.44799 21.7782ZM31.7972 21.7782H30.3583L22.8658 14.3474L24.3149 12.8982L31.7869 20.3085L31.7972 21.7782Z" fill="#9579df"/>
</svg>
