<svg width="29" height="29" viewBox="0 0 29 29" fill="none" xmlns="http://www.w3.org/2000/svg">
<path d="M27.7969 0.046875H1.20312C0.563574 0.046875 0.046875 0.563574 0.046875 1.20312V27.7969C0.046875 28.4364 0.563574 28.9531 1.20312 28.9531H27.7969C28.4364 28.9531 28.9531 28.4364 28.9531 27.7969V1.20312C28.9531 0.563574 28.4364 0.046875 27.7969 0.046875ZM24.4582 8.48389H22.1493C20.3391 8.48389 19.9886 9.34385 19.9886 10.6085V13.3943H24.3101L23.7464 17.7556H19.9886V28.9531H15.4828V17.7592H11.7142V13.3943H15.4828V10.1785C15.4828 6.446 17.7628 4.41172 21.0942 4.41172C22.6913 4.41172 24.0607 4.53096 24.4618 4.58516V8.48389H24.4582Z" fill="#9579df"/>
</svg>
