<svg width="71" height="65" viewBox="0 0 71 65" fill="none" xmlns="http://www.w3.org/2000/svg">
<path d="M70.0093 4.1275V60.8725C70.0093 61.8552 69.6178 62.7981 68.9203 63.4952C68.2227 64.1924 67.2757 64.5873 66.2859 64.5938H19.7479C18.7539 64.5938 17.8006 64.2017 17.0977 63.5038C16.3949 62.806 16 61.8594 16 60.8725V34.7344L21.3191 43.875L21.4418 43.9644L31.9737 37.6919C31.9737 37.5863 31.9737 37.4806 31.9737 37.375L16 9.95313V4.1275C16 3.14056 16.3949 2.19405 17.0977 1.49618C17.8006 0.798309 18.7539 0.40625 19.7479 0.40625H66.2859C67.2757 0.412687 68.2227 0.807586 68.9203 1.50476C69.6178 2.20193 70.0093 3.14477 70.0093 4.1275V4.1275Z" stroke="#9829f2" stroke-width="3" stroke-miterlimit="10"/>
<path d="M23.7734 8.9375H61.4163" stroke="#9829f2" stroke-width="3" stroke-miterlimit="10"/>
<path d="M27.8672 20.3125H61.4184" stroke="#9829f2" stroke-width="3" stroke-miterlimit="10"/>
<path d="M38.5039 30.0625H60.5986" stroke="#9829f2" stroke-width="3" stroke-miterlimit="10"/>
<path d="M43.4141 46.3125H61.4172" stroke="#9829f2" stroke-width="3" stroke-miterlimit="10"/>
<path d="M31.9746 37.6919L21.4428 43.9644L21.32 43.875L16.0009 34.7344L0.551014 8.19004C0.416939 7.95485 0.379544 7.67732 0.446636 7.41541C0.513727 7.15349 0.68012 6.92743 0.911076 6.78442L9.76533 1.37317C9.8846 1.30021 10.0174 1.25176 10.1559 1.23066C10.2943 1.20956 10.4356 1.21626 10.5715 1.25035C10.7073 1.28444 10.8348 1.34523 10.9465 1.42913C11.0583 1.51303 11.1519 1.61833 11.2219 1.73879C12.8149 4.47963 14.4079 7.21775 16.0009 9.95317L31.9582 37.375C31.9664 37.4807 31.9664 37.5863 31.9746 37.6919Z" stroke="#9829f2" stroke-width="3" stroke-miterlimit="10"/>
<path d="M32.7382 51.7319C32.7394 51.7561 32.7337 51.7801 32.7219 51.8012C32.7101 51.8224 32.6926 51.8399 32.6714 51.8517C32.6501 51.8635 32.626 51.8692 32.6016 51.8681C32.5773 51.8671 32.5537 51.8593 32.5336 51.8456L21.4453 43.9644L31.9771 37.6919L32.7382 51.7319Z" stroke="#9829f2" stroke-width="3" stroke-miterlimit="10"/>
</svg>
