<svg width="43" height="67" viewBox="0 0 43 67" fill="none" xmlns="http://www.w3.org/2000/svg">
<path d="M1.5 47.5796L14.7023 55.5019L14.8562 55.3891L21.5446 43.8442L40.8916 10.318C41.0596 10.021 41.1065 9.67043 41.0224 9.33963C40.9383 9.00882 40.7297 8.7233 40.4402 8.54267L29.3408 1.70813C29.1913 1.61598 29.0248 1.55478 28.8513 1.52814C28.6777 1.50149 28.5005 1.50995 28.3303 1.553C28.16 1.59606 28.0001 1.67284 27.8601 1.77881C27.72 1.88477 27.6026 2.01777 27.5149 2.16992C25.5179 5.62482 23.5278 9.08314 21.5446 12.5449L1.52052 47.1794C1.51026 47.3128 1.51026 47.4462 1.5 47.5796Z" stroke="#9829f2" stroke-width="3" stroke-miterlimit="10"/>
<path d="M0.515822 65.3125C0.514325 65.343 0.521369 65.3733 0.536163 65.4C0.550957 65.4268 0.572913 65.4488 0.599561 65.4638C0.62621 65.4787 0.656494 65.4859 0.687007 65.4845C0.717519 65.4832 0.74705 65.4734 0.772278 65.4561L13.4623 56.3884C14.0482 55.9698 14.0129 55.0878 13.3955 54.7173L2.92172 48.4324C2.27627 48.045 1.45045 48.4828 1.40871 49.2344L0.515822 65.3125Z" stroke="#9829f2" stroke-width="3" stroke-miterlimit="10"/>
</svg>
