<svg width="25" height="25" viewBox="0 0 35 35" fill="none" xmlns="http://www.w3.org/2000/svg">
<path fill-rule="evenodd" clip-rule="evenodd" d="M0.542969 3.3746C0.542969 2.62309 0.841507 1.90236 1.37291 1.37096C1.90431 0.839557 2.62504 0.541019 3.37655 0.541019H31.623C31.9954 0.540411 32.3643 0.613266 32.7085 0.755414C33.0528 0.897561 33.3656 1.10621 33.6291 1.36941C33.8926 1.63262 34.1015 1.94521 34.2441 2.28928C34.3866 2.63336 34.4598 3.00217 34.4596 3.3746V31.621C34.46 31.9935 34.387 32.3624 34.2447 32.7067C34.1024 33.0509 33.8936 33.3637 33.6302 33.6272C33.3669 33.8907 33.0542 34.0996 32.7101 34.2421C32.3659 34.3846 31.997 34.4579 31.6245 34.4577H3.37655C3.00431 34.4577 2.63572 34.3843 2.29183 34.2418C1.94794 34.0993 1.6355 33.8905 1.37236 33.6272C1.10922 33.3639 0.90053 33.0514 0.75822 32.7074C0.61591 32.3634 0.542767 31.9948 0.542969 31.6226V3.3746ZM13.9678 13.4725H18.5604V15.7789C19.2233 14.453 20.9192 13.2598 23.4676 13.2598C28.3531 13.2598 29.5109 15.9006 29.5109 20.7461V29.7217H24.5668V21.8499C24.5668 19.0904 23.9038 17.5333 22.2203 17.5333C19.8847 17.5333 18.9135 19.2121 18.9135 21.8499V29.7217H13.9678V13.4725ZM5.48864 29.5105H10.4343V13.2598H5.48864V29.5089V29.5105ZM11.1419 7.95952C11.1513 8.38297 11.0759 8.80402 10.9203 9.19796C10.7647 9.5919 10.532 9.95079 10.2358 10.2536C9.9396 10.5563 9.58592 10.7969 9.1955 10.9612C8.80509 11.1254 8.3858 11.21 7.96224 11.21C7.53868 11.21 7.11939 11.1254 6.72898 10.9612C6.33856 10.7969 5.98488 10.5563 5.6887 10.2536C5.39251 9.95079 5.15979 9.5919 5.00418 9.19796C4.84858 8.80402 4.77323 8.38297 4.78255 7.95952C4.80086 7.12834 5.1439 6.33736 5.73821 5.75599C6.33252 5.17462 7.13086 4.84908 7.96224 4.84908C8.79362 4.84908 9.59196 5.17462 10.1863 5.75599C10.7806 6.33736 11.1236 7.12834 11.1419 7.95952Z" fill="#9579df"/>
</svg>
