<svg width="1440" height="234" viewBox="0 0 1440 234" fill="none" xmlns="http://www.w3.org/2000/svg">
<path d="M894.671 191.462L894.831 192.45L894.671 191.462ZM849.022 2.13305L849.076 1.13454L849.022 2.13305ZM625.34 123.524L624.379 123.802L625.34 123.524ZM1067 228.929L1067.08 229.925L1067 228.929ZM1468 108.945C1467.95 108.395 1467.46 107.99 1466.91 108.041L1457.95 108.864C1457.4 108.915 1456.99 109.401 1457.04 109.951C1457.09 110.501 1457.58 110.906 1458.13 110.856L1466.1 110.124L1466.83 118.09C1466.88 118.64 1467.36 119.045 1467.91 118.995C1468.46 118.944 1468.87 118.458 1468.82 117.908L1468 108.945ZM-40.5978 130.819C-40.0832 131.203 -39.5633 131.585 -39.0381 131.966L-37.8649 130.346C-38.3827 129.971 -38.8951 129.594 -39.4022 129.216L-40.5978 130.819ZM-35.8235 134.228C-34.7309 134.976 -33.6174 135.717 -32.4832 136.452L-31.396 134.773C-32.5164 134.047 -33.6158 133.316 -34.694 132.578L-35.8235 134.228ZM-29.0192 138.636C-27.8441 139.357 -26.6487 140.072 -25.4332 140.781L-24.4258 139.053C-25.6285 138.352 -26.8109 137.645 -27.9727 136.931L-29.0192 138.636ZM-21.9976 142.738C-20.8597 143.371 -19.7054 143.999 -18.535 144.622L-17.5954 142.856C-18.7551 142.239 -19.8984 141.617 -21.0251 140.99L-21.9976 142.738ZM-14.9756 146.475C-13.7732 147.087 -12.5549 147.695 -11.3209 148.297L-10.4437 146.5C-11.6677 145.902 -12.8758 145.3 -14.0679 144.693L-14.9756 146.475ZM-7.57195 150.088C-6.37125 150.65 -5.1566 151.208 -3.9282 151.761L-3.10734 149.937C-4.32693 149.388 -5.5326 148.835 -6.72417 148.277L-7.57195 150.088ZM-0.336697 153.347C0.87315 153.872 2.09563 154.393 3.33056 154.909L4.10218 153.064C2.87517 152.551 1.66076 152.034 0.45911 151.513L-0.336697 153.347ZM7.07259 156.446C8.33229 156.954 9.60429 157.458 10.8884 157.958L11.6141 156.095C10.3374 155.598 9.0729 155.096 7.82085 154.591L7.07259 156.446ZM14.777 159.446C15.9915 159.903 17.2163 160.356 18.4513 160.806L19.1356 158.926C17.9071 158.479 16.6888 158.028 15.4809 157.574L14.777 159.446ZM22.1653 162.137C23.4133 162.577 24.6712 163.014 25.9389 163.448L26.5861 161.555C25.3244 161.124 24.0725 160.689 22.8307 160.251L22.1653 162.137ZM29.7714 164.738C31.0586 165.165 32.3555 165.589 33.662 166.009L34.2743 164.105C32.9734 163.686 31.6823 163.265 30.4009 162.84L29.7714 164.738ZM37.6099 167.259C38.8634 167.65 40.1253 168.038 41.3955 168.424L41.9759 166.51C40.7106 166.126 39.4538 165.739 38.2055 165.35L37.6099 167.259ZM45.1723 169.553C46.4392 169.926 47.7141 170.297 48.9968 170.665L49.5483 168.743C48.2702 168.376 47.0001 168.007 45.738 167.634L45.1723 169.553ZM52.8685 171.761C54.1669 172.123 55.473 172.482 56.7867 172.839L57.3108 170.909C56.0015 170.553 54.6999 170.195 53.4061 169.834L52.8685 171.761ZM60.7508 173.901C62.0639 174.248 63.3844 174.592 64.7122 174.934L65.2105 172.997C63.8869 172.657 62.5707 172.313 61.2618 171.967L60.7508 173.901ZM68.5182 175.901C69.7934 176.221 71.0751 176.539 72.3632 176.854L72.8385 174.911C71.5542 174.597 70.2763 174.28 69.0049 173.961L68.5182 175.901ZM76.2465 177.792C77.5473 178.102 78.8543 178.41 80.1676 178.716L80.6209 176.768C79.3112 176.463 78.0077 176.156 76.7106 175.846L76.2465 177.792ZM84.126 179.626C85.4517 179.926 86.7834 180.225 88.1212 180.521L88.5536 178.568C87.2192 178.273 85.8909 177.975 84.5687 177.675L84.126 179.626ZM92.1148 181.395C93.3926 181.671 94.6758 181.945 95.9642 182.216L96.3772 180.26C95.0918 179.988 93.8118 179.715 92.5371 179.44L92.1148 181.395ZM99.8453 183.026C101.144 183.294 102.448 183.559 103.757 183.823L104.152 181.862C102.846 181.599 101.545 181.334 100.249 181.067L99.8453 183.026ZM107.7 184.608C109.02 184.867 110.344 185.125 111.673 185.381L112.051 183.416C110.724 183.162 109.403 182.905 108.086 182.646L107.7 184.608ZM115.676 186.141C117.016 186.393 118.36 186.642 119.709 186.889L120.07 184.922C118.723 184.675 117.382 184.426 116.046 184.175L115.676 186.141ZM123.627 187.6C124.922 187.832 126.222 188.063 127.525 188.292L127.871 186.322C126.57 186.094 125.273 185.863 123.98 185.632L123.627 187.6ZM131.45 188.973C132.762 189.198 134.079 189.421 135.399 189.643L135.73 187.67C134.412 187.449 133.098 187.226 131.788 187.001L131.45 188.973ZM139.374 190.302C140.703 190.52 142.036 190.736 143.372 190.951L143.689 188.976C142.355 188.762 141.024 188.546 139.698 188.328L139.374 190.302ZM147.395 191.589C148.74 191.8 150.089 192.009 151.442 192.217L151.745 190.24C150.394 190.033 149.048 189.824 147.705 189.613L147.395 191.589ZM155.351 192.81C156.657 193.006 157.966 193.201 159.279 193.394L159.57 191.415C158.259 191.222 156.952 191.028 155.648 190.832L155.351 192.81ZM163.228 193.968C164.547 194.157 165.87 194.346 167.197 194.532L167.476 192.552C166.151 192.365 164.83 192.177 163.512 191.988L163.228 193.968ZM171.186 195.087C172.519 195.271 173.856 195.453 175.195 195.633L175.462 193.651C174.124 193.471 172.79 193.289 171.459 193.106L171.186 195.087ZM179.223 196.169C180.569 196.347 181.918 196.522 183.271 196.697L183.526 194.713C182.176 194.539 180.829 194.363 179.485 194.186L179.223 196.169ZM187.214 197.199C188.527 197.365 189.842 197.529 191.16 197.691L191.405 195.706C190.088 195.544 188.775 195.38 187.465 195.215L187.214 197.199ZM195.122 198.175C196.445 198.335 197.772 198.493 199.1 198.65L199.335 196.664C198.008 196.507 196.683 196.349 195.362 196.189L195.122 198.175ZM203.095 199.117C204.43 199.271 205.767 199.424 207.106 199.576L207.331 197.588C205.993 197.437 204.658 197.284 203.325 197.13L203.095 199.117ZM211.132 200.026C212.477 200.174 213.824 200.322 215.174 200.468L215.389 198.479C214.041 198.334 212.695 198.186 211.352 198.038L211.132 200.026ZM219.173 200.896C220.489 201.035 221.808 201.173 223.129 201.309L223.335 199.32C222.015 199.184 220.698 199.046 219.383 198.907L219.173 200.896ZM227.099 201.716C228.424 201.85 229.752 201.983 231.081 202.115L231.278 200.124C229.95 199.993 228.624 199.86 227.3 199.726L227.099 201.716ZM235.077 202.506C236.411 202.635 237.748 202.763 239.086 202.889L239.274 200.898C237.938 200.772 236.603 200.644 235.27 200.515L235.077 202.506ZM243.107 203.266C244.45 203.39 245.794 203.513 247.14 203.634L247.32 201.643C245.975 201.521 244.632 201.398 243.291 201.274L243.107 203.266ZM251.186 203.996C252.509 204.113 253.834 204.228 255.16 204.343L255.332 202.35C254.007 202.236 252.683 202.12 251.362 202.004L251.186 203.996ZM259.135 204.682C260.462 204.794 261.79 204.905 263.12 205.014L263.285 203.021C261.956 202.912 260.629 202.801 259.303 202.689L259.135 204.682ZM267.116 205.34C268.449 205.447 269.784 205.553 271.121 205.658L271.278 203.664C269.942 203.559 268.608 203.453 267.276 203.346L267.116 205.34ZM275.137 205.97C276.477 206.073 277.818 206.174 279.161 206.275L279.311 204.281C277.969 204.18 276.628 204.078 275.289 203.976L275.137 205.97ZM283.195 206.573C284.54 206.671 285.886 206.769 287.234 206.865L287.376 204.87C286.03 204.774 284.685 204.677 283.341 204.579L283.195 206.573ZM291.214 207.145C292.542 207.237 293.871 207.328 295.201 207.418L295.337 205.423C294.007 205.333 292.679 205.242 291.352 205.149L291.214 207.145ZM299.197 207.686C300.53 207.774 301.864 207.861 303.2 207.947L303.328 205.951C301.994 205.865 300.661 205.778 299.329 205.69L299.197 207.686ZM307.21 208.202C308.548 208.286 309.888 208.368 311.228 208.45L311.35 206.454C310.011 206.372 308.673 206.289 307.336 206.206L307.21 208.202ZM315.253 208.693C316.595 208.773 317.939 208.852 319.284 208.929L319.399 206.933C318.056 206.855 316.713 206.776 315.371 206.696L315.253 208.693ZM323.318 209.159C324.647 209.234 325.978 209.308 327.31 209.381L327.419 207.384C326.088 207.311 324.759 207.237 323.43 207.163L323.318 209.159ZM331.307 209.597C332.64 209.668 333.975 209.737 335.31 209.806L335.413 207.809C334.079 207.74 332.746 207.67 331.413 207.599L331.307 209.597ZM339.318 210.011C340.655 210.078 341.993 210.144 343.331 210.209L343.428 208.211C342.091 208.146 340.754 208.08 339.418 208.013L339.318 210.011ZM347.349 210.402C348.689 210.465 350.03 210.527 351.372 210.589L351.463 208.591C350.123 208.529 348.783 208.467 347.444 208.404L347.349 210.402ZM355.398 210.77C356.741 210.829 358.085 210.888 359.429 210.946L359.515 208.948C358.172 208.89 356.829 208.831 355.487 208.772L355.398 210.77ZM363.433 211.115C364.767 211.17 366.103 211.225 367.438 211.278L367.519 209.28C366.184 209.226 364.849 209.172 363.516 209.116L363.433 211.115ZM371.447 211.436C372.784 211.488 374.122 211.539 375.459 211.589L375.534 209.59C374.197 209.54 372.861 209.49 371.525 209.438L371.447 211.436ZM379.474 211.737C380.813 211.785 382.152 211.832 383.492 211.879L383.561 209.88C382.222 209.834 380.884 209.786 379.546 209.738L379.474 211.737ZM387.511 212.016C388.852 212.061 390.192 212.105 391.533 212.148L391.598 210.149C390.257 210.106 388.918 210.062 387.578 210.017L387.511 212.016ZM395.557 212.274C396.895 212.315 398.233 212.356 399.572 212.395L399.631 210.396C398.293 210.357 396.956 210.316 395.619 210.275L395.557 212.274ZM403.586 212.511C404.924 212.549 406.262 212.586 407.6 212.623L407.654 210.623C406.317 210.587 404.979 210.55 403.642 210.512L403.586 212.511ZM411.616 212.729C412.955 212.763 414.293 212.797 415.632 212.83L415.681 210.83C414.343 210.797 413.005 210.764 411.668 210.729L411.616 212.729ZM419.649 212.926C420.988 212.957 422.327 212.988 423.666 213.017L423.71 211.018C422.372 210.988 421.034 210.958 419.696 210.926L419.649 212.926ZM427.683 213.104C429.022 213.132 430.361 213.159 431.7 213.186L431.74 211.186C430.401 211.16 429.063 211.132 427.725 211.104L427.683 213.104ZM435.72 213.263C437.06 213.287 438.401 213.312 439.741 213.335L439.776 211.335C438.437 211.312 437.097 211.288 435.757 211.263L435.72 213.263ZM443.762 213.403C445.102 213.424 446.442 213.445 447.782 213.466L447.812 211.466C446.473 211.446 445.134 211.425 443.795 211.403L443.762 213.403ZM451.8 213.524C453.139 213.543 454.478 213.56 455.816 213.578L455.842 211.578C454.504 211.561 453.166 211.543 451.828 211.524L451.8 213.524ZM459.831 213.627C461.169 213.642 462.506 213.657 463.843 213.671L463.864 211.672C462.528 211.657 461.191 211.643 459.854 211.627L459.831 213.627ZM467.853 213.712C469.193 213.724 470.532 213.736 471.871 213.748L471.887 211.748C470.549 211.736 469.211 211.724 467.872 211.712L467.853 213.712ZM475.901 213.779C477.244 213.789 478.586 213.798 479.928 213.806L479.94 211.806C478.599 211.798 477.257 211.789 475.915 211.779L475.901 213.779ZM483.951 213.829C485.292 213.836 486.632 213.842 487.971 213.847L487.98 211.847C486.641 211.842 485.302 211.836 483.962 211.829L483.951 213.829ZM491.988 213.861C493.326 213.865 494.663 213.868 496 213.871L496.004 211.871C494.668 211.868 493.331 211.865 491.994 211.861L491.988 213.861ZM500.008 213.876C501.343 213.878 502.678 213.878 504.012 213.878L504.011 211.878C502.678 211.878 501.344 211.878 500.01 211.876L500.008 213.876ZM508.022 213.875C509.369 213.873 510.715 213.871 512.06 213.868L512.056 211.868C510.711 211.871 509.366 211.873 508.019 211.875L508.022 213.875ZM516.094 213.856C517.438 213.852 518.78 213.847 520.122 213.841L520.113 211.841C518.772 211.847 517.43 211.852 516.087 211.856L516.094 213.856ZM524.144 213.821C525.484 213.814 526.823 213.806 528.16 213.798L528.147 211.798C526.81 211.806 525.472 211.814 524.133 211.821L524.144 213.821ZM532.17 213.77C533.505 213.76 534.84 213.75 536.173 213.738L536.156 211.738C534.824 211.75 533.49 211.76 532.155 211.77L532.17 213.77ZM540.169 213.703C541.505 213.69 542.839 213.677 544.173 213.663L544.152 211.663C542.819 211.677 541.485 211.69 540.15 211.703L540.169 213.703ZM548.22 213.619C549.568 213.603 550.915 213.587 552.26 213.571L552.235 211.571C550.891 211.587 549.545 211.604 548.197 211.619L548.22 213.619ZM556.292 213.519C557.634 213.501 558.975 213.482 560.315 213.463L560.286 211.463C558.947 211.482 557.607 211.501 556.265 211.519L556.292 213.519ZM564.33 213.403C565.667 213.382 567.002 213.361 568.336 213.339L568.303 211.339C566.97 211.361 565.635 211.382 564.299 211.403L564.33 213.403ZM572.332 213.272C573.663 213.249 574.992 213.225 576.32 213.201L576.283 211.201C574.956 211.225 573.628 211.249 572.298 211.272L572.332 213.272ZM580.326 213.125C581.68 213.099 583.031 213.072 584.381 213.045L584.341 211.045C582.991 211.073 581.64 211.099 580.288 211.126L580.326 213.125ZM588.426 212.961C589.772 212.932 591.117 212.903 592.459 212.873L592.415 210.874C591.073 210.904 589.729 210.933 588.383 210.961L588.426 212.961ZM596.482 212.782C597.82 212.751 599.157 212.719 600.492 212.687L600.444 210.687C599.11 210.72 597.773 210.751 596.435 210.782L596.482 212.782ZM604.492 212.588C605.823 212.555 607.152 212.52 608.479 212.486L608.427 210.487C607.1 210.521 605.772 210.555 604.441 210.589L604.492 212.588ZM612.454 212.38C613.8 212.344 615.144 212.307 616.486 212.269L616.43 210.27C615.089 210.307 613.745 210.344 612.4 210.381L612.454 212.38ZM620.545 212.153C621.896 212.114 623.245 212.074 624.591 212.034L624.531 210.035C623.185 210.075 621.838 210.115 620.487 210.154L620.545 212.153ZM628.622 211.911C629.964 211.869 631.303 211.827 632.639 211.784L632.576 209.785C631.24 209.828 629.901 209.87 628.56 209.912L628.622 211.911ZM636.642 211.655C637.973 211.611 639.302 211.566 640.629 211.521L640.561 209.523C639.235 209.567 637.907 209.612 636.576 209.656L636.642 211.655ZM644.6 211.385C645.93 211.338 647.256 211.292 648.58 211.244L648.509 209.245C647.185 209.293 645.859 209.34 644.531 209.386L644.6 211.385ZM652.655 211.096C654.011 211.046 655.364 210.996 656.713 210.945L656.638 208.946C655.289 208.997 653.937 209.048 652.582 209.097L652.655 211.096ZM660.753 210.79C662.097 210.738 663.438 210.685 664.775 210.632L664.696 208.633C663.359 208.686 662.019 208.739 660.676 208.791L660.753 210.79ZM668.779 210.47C670.111 210.416 671.439 210.361 672.764 210.306L672.68 208.307C671.356 208.363 670.028 208.418 668.698 208.472L668.779 210.47ZM676.73 210.138C678.048 210.081 679.364 210.024 680.676 209.967L680.589 207.969C679.277 208.026 677.962 208.083 676.644 208.14L676.73 210.138ZM684.765 209.786C686.124 209.725 687.48 209.663 688.833 209.601L688.741 207.603C687.389 207.665 686.034 207.727 684.675 207.788L684.765 209.786ZM692.878 209.414C694.223 209.35 695.564 209.287 696.901 209.223L696.805 207.225C695.469 207.289 694.128 207.353 692.784 207.416L692.878 209.414ZM700.901 209.029C702.23 208.964 703.556 208.898 704.877 208.832L704.777 206.834C703.456 206.901 702.132 206.966 700.803 207.031L700.901 209.029ZM708.83 208.632C710.153 208.565 711.473 208.496 712.788 208.428L712.683 206.431C711.369 206.499 710.051 206.567 708.728 206.635L708.83 208.632ZM716.885 208.212C718.246 208.14 719.603 208.067 720.955 207.993L720.847 205.996C719.495 206.069 718.139 206.142 716.779 206.215L716.885 208.212ZM724.998 207.771C726.34 207.697 727.679 207.622 729.012 207.546L728.899 205.549C727.566 205.625 726.229 205.7 724.887 205.774L724.998 207.771ZM732.997 207.318C734.321 207.242 735.64 207.165 736.954 207.088L736.836 205.091C735.523 205.169 734.205 205.245 732.882 205.322L732.997 207.318ZM740.88 206.855C742.236 206.773 743.586 206.692 744.93 206.609L744.808 204.613C743.464 204.695 742.115 204.777 740.761 204.858L740.88 206.855ZM749.022 206.357C750.381 206.272 751.733 206.187 753.08 206.101L752.953 204.105C751.607 204.191 750.255 204.276 748.898 204.36L749.022 206.357ZM757.103 205.843C758.438 205.756 759.767 205.669 761.089 205.582L760.958 203.586C759.635 203.673 758.307 203.76 756.973 203.847L757.103 205.843ZM765.04 205.318C766.351 205.23 767.656 205.141 768.954 205.052L768.817 203.057C767.52 203.146 766.216 203.234 764.906 203.323L765.04 205.318ZM772.994 204.772C774.369 204.676 775.738 204.579 777.099 204.482L776.956 202.487C775.596 202.584 774.229 202.681 772.854 202.777L772.994 204.772ZM781.159 204.19C782.505 204.092 783.844 203.993 785.175 203.895L785.027 201.9C783.697 201.999 782.359 202.097 781.014 202.195L781.159 204.19ZM789.146 203.597C790.462 203.498 791.771 203.398 793.072 203.298L792.918 201.303C791.618 201.404 790.311 201.503 788.996 201.603L789.146 203.597ZM796.952 202.996C798.344 202.886 799.727 202.776 801.1 202.666L800.94 200.673C799.568 200.783 798.186 200.892 796.795 201.002L796.952 202.996ZM805.193 202.335C806.548 202.224 807.893 202.112 809.229 202.001L809.062 200.008C807.727 200.119 806.383 200.23 805.03 200.341L805.193 202.335ZM813.207 201.665C814.523 201.553 815.83 201.44 817.127 201.327L816.953 199.335C815.658 199.447 814.352 199.56 813.037 199.672L813.207 201.665ZM820.988 200.987C822.38 200.864 823.761 200.739 825.13 200.615L824.948 198.623C823.581 198.748 822.202 198.872 820.81 198.995L820.988 200.987ZM829.233 200.238C830.588 200.112 831.931 199.985 833.261 199.859L833.072 197.868C831.743 197.994 830.401 198.12 829.047 198.246L829.233 200.238ZM837.214 199.478C838.519 199.351 839.811 199.224 841.09 199.096L840.892 197.106C839.614 197.233 838.323 197.36 837.02 197.487L837.214 199.478ZM845.055 198.696C846.458 198.552 847.844 198.409 849.214 198.265L849.005 196.276C847.637 196.42 846.253 196.563 844.851 196.706L845.055 198.696ZM853.272 197.833C854.608 197.689 855.927 197.545 857.229 197.4L857.008 195.413C855.708 195.557 854.392 195.701 853.058 195.845L853.272 197.833ZM861.081 196.967C862.428 196.814 863.754 196.66 865.061 196.506L864.827 194.52C863.523 194.673 862.199 194.827 860.855 194.98L861.081 196.967ZM869.228 196.008C870.593 195.841 871.935 195.675 873.252 195.509L873.002 193.525C871.688 193.691 870.349 193.856 868.986 194.022L869.228 196.008ZM877.131 195.011C878.428 194.842 879.699 194.672 880.943 194.503L880.674 192.521C879.433 192.69 878.165 192.859 876.872 193.028L877.131 195.011ZM885.183 193.913C886.56 193.717 887.902 193.521 889.206 193.326L888.91 191.348C887.61 191.542 886.274 191.738 884.901 191.933L885.183 193.913ZM893.011 192.741C893.627 192.644 894.234 192.547 894.831 192.45L894.511 190.475C893.916 190.572 893.312 190.669 892.699 190.765L893.011 192.741ZM894.831 192.45C895.515 192.339 896.195 192.225 896.872 192.11L896.536 190.139C895.865 190.253 895.19 190.365 894.511 190.475L894.831 192.45ZM900.882 191.397C902.203 191.151 903.508 190.898 904.798 190.637L904.401 188.677C903.122 188.936 901.827 189.187 900.516 189.431L900.882 191.397ZM908.621 189.832C909.94 189.543 911.242 189.245 912.528 188.94L912.065 186.994C910.792 187.297 909.501 187.591 908.193 187.878L908.621 189.832ZM916.474 187.963C917.772 187.629 919.051 187.286 920.313 186.936L919.777 185.009C918.528 185.356 917.261 185.695 915.976 186.026L916.474 187.963ZM924.044 185.858C925.368 185.461 926.672 185.054 927.956 184.639L927.339 182.736C926.07 183.147 924.78 183.549 923.469 183.942L924.044 185.858ZM931.769 183.354C933.02 182.917 934.25 182.47 935.459 182.015L934.754 180.143C933.56 180.593 932.345 181.034 931.109 181.466L931.769 183.354ZM939.202 180.549C940.471 180.033 941.715 179.507 942.936 178.97L942.131 177.139C940.928 177.668 939.7 178.187 938.449 178.696L939.202 180.549ZM946.526 177.331C947.749 176.75 948.947 176.159 950.12 175.557L949.207 173.778C948.053 174.37 946.874 174.952 945.668 175.524L946.526 177.331ZM953.697 173.645C954.862 172.997 956 172.337 957.11 171.667L956.077 169.955C954.987 170.613 953.869 171.26 952.724 171.898L953.697 173.645ZM960.535 169.511C961.675 168.762 962.783 168.002 963.859 167.23L962.694 165.604C961.64 166.36 960.554 167.105 959.437 167.839L960.535 169.511ZM967.011 164.868C968.102 164.013 969.158 163.145 970.177 162.266L968.871 160.751C967.875 161.61 966.844 162.458 965.778 163.294L967.011 164.868ZM973.132 159.59C974.121 158.648 975.073 157.693 975.987 156.727L974.534 155.352C973.644 156.293 972.718 157.223 971.753 158.141L973.132 159.59ZM978.676 153.722C979.55 152.688 980.383 151.642 981.177 150.585L979.577 149.385C978.807 150.411 977.998 151.426 977.149 152.43L978.676 153.722ZM983.511 147.267C984.253 146.139 984.952 145.001 985.608 143.851L983.871 142.86C983.236 143.972 982.559 145.075 981.841 146.167L983.511 147.267ZM987.506 140.256C988.095 139.043 988.64 137.82 989.14 136.587L987.287 135.835C986.803 137.027 986.277 138.209 985.707 139.382L987.506 140.256ZM990.536 132.774C990.956 131.492 991.33 130.202 991.659 128.904L989.72 128.413C989.403 129.667 989.041 130.913 988.636 132.151L990.536 132.774ZM992.519 124.947C992.76 123.621 992.955 122.288 993.106 120.95L991.119 120.725C990.973 122.019 990.784 123.308 990.551 124.589L992.519 124.947ZM993.427 116.925C993.49 115.58 993.509 114.231 993.485 112.879L991.486 112.914C991.508 114.224 991.49 115.53 991.429 116.832L993.427 116.925ZM993.292 108.859C993.186 107.518 993.039 106.176 992.853 104.832L990.872 105.107C991.053 106.412 991.195 107.715 991.298 109.016L993.292 108.859ZM992.189 100.875C991.93 99.5556 991.633 98.2363 991.299 96.9178L989.36 97.4091C989.685 98.6932 989.974 99.9774 990.227 101.261L992.189 100.875ZM990.218 93.0684C989.823 91.7866 989.393 90.5065 988.93 89.2289L987.05 89.9107C987.502 91.1582 987.921 92.4074 988.306 93.6574L990.218 93.0684ZM987.481 85.5038C986.968 84.2694 986.424 83.0383 985.849 81.8111L984.038 82.6593C984.6 83.8603 985.132 85.0645 985.634 86.2712L987.481 85.5038ZM984.075 78.2208C983.461 77.0401 982.818 75.8637 982.148 74.6925L980.412 75.6856C981.069 76.8341 981.699 77.9871 982.3 79.1438L984.075 78.2208ZM980.085 71.2422C979.384 70.1183 978.657 68.9999 977.906 67.8876L976.249 69.0073C976.987 70.0998 977.7 71.1979 978.388 72.3009L980.085 71.2422ZM975.584 64.5797C974.808 63.5143 974.009 62.4552 973.188 61.403L971.612 62.6337C972.419 63.6686 973.205 64.7099 973.967 65.7571L975.584 64.5797ZM970.657 58.2678C969.809 57.2515 968.94 56.2423 968.05 55.2409L966.555 56.5694C967.431 57.5555 968.287 58.5489 969.121 59.5491L970.657 58.2678ZM965.344 52.2883C964.428 51.3179 963.492 50.3554 962.537 49.4015L961.123 50.8169C962.065 51.757 962.988 52.7054 963.89 53.6614L965.344 52.2883ZM959.68 46.6299C958.71 45.7145 957.722 44.8077 956.716 43.9101L955.384 45.4025C956.377 46.2879 957.351 47.1821 958.308 48.0846L959.68 46.6299ZM953.699 41.2916C952.687 40.4362 951.658 39.5898 950.613 38.753L949.363 40.3142C950.394 41.1401 951.41 41.9753 952.409 42.8194L953.699 41.2916ZM947.431 36.2734C946.382 35.4769 945.317 34.6899 944.238 33.9129L943.069 35.5361C944.135 36.3034 945.186 37.0803 946.222 37.8666L947.431 36.2734ZM940.956 31.612C939.856 30.8613 938.742 30.1207 937.615 29.3908L936.528 31.0697C937.642 31.7908 938.742 32.5223 939.828 33.2638L940.956 31.612ZM934.246 27.2673C933.11 26.5701 931.961 25.8834 930.799 25.2078L929.793 26.9369C930.942 27.6045 932.077 28.2829 933.2 28.9719L934.246 27.2673ZM927.32 23.2398C926.16 22.6012 924.988 21.9735 923.804 21.357L922.88 23.131C924.05 23.7403 925.209 24.3608 926.356 24.992L927.32 23.2398ZM920.216 19.542C919.029 18.958 917.83 18.3853 916.62 17.8242L915.778 19.6386C916.974 20.1933 918.16 20.7595 919.334 21.3368L920.216 19.542ZM912.978 16.1852C911.754 15.6506 910.519 15.1279 909.274 14.6173L908.515 16.4678C909.746 16.9726 910.967 17.4895 912.178 18.0181L912.978 16.1852ZM905.576 13.1484C904.337 12.6722 903.088 12.208 901.831 11.7562L901.154 13.6384C902.398 14.0853 903.633 14.5443 904.858 15.0153L905.576 13.1484ZM898.03 10.438C896.777 10.019 895.515 9.61216 894.245 9.21787L893.652 11.1279C894.908 11.5179 896.156 11.9203 897.395 12.3347L898.03 10.438ZM890.416 8.07491C889.132 7.70659 887.839 7.35105 886.538 7.0086L886.029 8.94271C887.316 9.28146 888.594 9.63314 889.865 9.99745L890.416 8.07491ZM882.682 6.03785C881.391 5.72769 880.093 5.43039 878.788 5.14623L878.363 7.10046C879.654 7.38156 880.938 7.67566 882.214 7.98246L882.682 6.03785ZM874.85 4.33348C873.553 4.0802 872.248 3.83992 870.937 3.61289L870.596 5.58357C871.893 5.80817 873.184 6.04588 874.467 6.29644L874.85 4.33348ZM866.997 2.97391C865.677 2.77427 864.351 2.58807 863.018 2.41558L862.761 4.39903C864.08 4.56969 865.392 4.75391 866.698 4.95142L866.997 2.97391ZM859.06 1.94578C857.743 1.80357 856.42 1.67477 855.092 1.55963L854.919 3.55216C856.233 3.66608 857.542 3.79352 858.845 3.93422L859.06 1.94578ZM851.09 1.25544C850.42 1.21165 849.749 1.17134 849.076 1.13454L848.967 3.13155C849.632 3.16797 850.297 3.20785 850.959 3.25118L851.09 1.25544ZM849.076 1.13454C848.41 1.09809 847.744 1.06248 847.079 1.02773L846.975 3.02501C847.638 3.05967 848.302 3.09519 848.967 3.13155L849.076 1.13454ZM843.094 0.829515C841.768 0.766882 840.443 0.707698 839.121 0.651997L839.037 2.65022C840.356 2.70578 841.677 2.76481 842.999 2.82729L843.094 0.829515ZM835.149 0.494869C833.816 0.445596 832.485 0.399926 831.156 0.357894L831.093 2.35689C832.418 2.39881 833.745 2.44436 835.075 2.4935L835.149 0.494869ZM827.179 0.242743C825.854 0.207968 824.532 0.176875 823.212 0.1495L823.171 2.14907C824.486 2.17637 825.805 2.20737 827.127 2.24205L827.179 0.242743ZM819.213 0.0778224C817.882 0.0577642 816.555 0.0415524 815.231 0.029223L815.213 2.02914C816.533 2.04143 817.856 2.05759 819.182 2.07759L819.213 0.0778224ZM811.268 0.00391823C809.931 -0.000679493 808.596 -0.00123799 807.265 0.00228029L807.27 2.00227C808.597 1.99877 809.928 1.99932 811.262 2.00391L811.268 0.00391823ZM803.281 0.0251175C801.956 0.0368353 800.635 0.0526708 799.318 0.0726621L799.348 2.07243C800.661 2.05251 801.978 2.03672 803.298 2.02504L803.281 0.0251175ZM795.316 0.146465C793.984 0.175433 792.655 0.208743 791.331 0.246435L791.388 2.24563C792.708 2.20806 794.032 2.17486 795.36 2.14599L795.316 0.146465ZM787.371 0.372696C786.033 0.419961 784.7 0.471794 783.371 0.528239L783.456 2.52644C784.78 2.4702 786.108 2.41855 787.441 2.37145L787.371 0.372696ZM779.388 0.711981C778.064 0.777893 776.746 0.848483 775.432 0.923795L775.547 2.92052C776.855 2.84549 778.169 2.77517 779.487 2.7095L779.388 0.711981ZM771.433 1.16869C770.102 1.25545 768.777 1.34719 767.456 1.44394L767.602 3.43859C768.917 3.34224 770.238 3.25087 771.564 3.16445L771.433 1.16869ZM763.511 1.74927C762.172 1.85848 760.839 1.97297 759.511 2.0928L759.691 4.0847C761.013 3.9654 762.34 3.8514 763.673 3.74265L763.511 1.74927ZM755.545 2.4686C754.225 2.59964 752.911 2.73611 751.603 2.87805L751.819 4.86637C753.121 4.7251 754.429 4.58926 755.743 4.45882L755.545 2.4686ZM747.615 3.33034C746.292 3.48685 744.976 3.64913 743.667 3.81723L743.921 5.80094C745.224 5.6337 746.533 5.47223 747.85 5.31648L747.615 3.33034ZM739.724 4.34404C738.394 4.52876 737.072 4.71969 735.757 4.91686L736.054 6.89474C737.361 6.69865 738.676 6.50876 739.999 6.32501L739.724 4.34404ZM731.836 5.52718C730.513 5.74077 729.198 5.96089 727.892 6.18762L728.234 8.15817C729.532 7.93281 730.84 7.71397 732.155 7.50162L731.836 5.52718ZM723.958 6.89501C722.655 7.13765 721.361 7.38711 720.076 7.64343L720.467 9.60481C721.744 9.35017 723.03 9.10232 724.324 8.86121L723.958 6.89501ZM716.132 8.45764C714.826 8.73639 713.531 9.02249 712.246 9.31603L712.691 11.2658C713.967 10.9744 715.253 10.6903 716.549 10.4135L716.132 8.45764ZM708.363 10.2327C707.057 10.5514 705.762 10.8781 704.478 11.2129L704.982 13.1482C706.256 12.8161 707.541 12.492 708.837 12.1757L708.363 10.2327ZM700.659 12.2415C699.355 12.6043 698.063 12.9758 696.783 13.356L697.353 15.2732C698.621 14.8963 699.902 14.528 701.195 14.1683L700.659 12.2415ZM692.98 14.524C691.698 14.9305 690.43 15.3464 689.175 15.7716L689.817 17.6658C691.059 17.2449 692.315 16.8331 693.585 16.4303L692.98 14.524ZM685.399 17.0942C684.141 17.5495 682.898 18.0147 681.669 18.49L682.391 20.3552C683.606 19.8853 684.835 19.4252 686.079 18.9748L685.399 17.0942ZM677.936 19.9844C676.705 20.4943 675.489 21.015 674.29 21.5465L675.101 23.3749C676.284 22.8502 677.485 22.336 678.701 21.8323L677.936 19.9844ZM670.62 23.2315C669.414 23.8049 668.226 24.3901 667.057 24.9871L667.966 26.7684C669.119 26.1801 670.29 25.6032 671.479 25.0377L670.62 23.2315ZM663.488 26.8768C662.315 27.5216 661.161 28.1793 660.029 28.85L661.047 30.571C662.161 29.9115 663.296 29.2644 664.451 28.6297L663.488 26.8768ZM656.592 30.965C655.463 31.688 654.355 32.4252 653.271 33.1768L654.41 34.8205C655.474 34.0833 656.561 33.3597 657.67 32.6496L656.592 30.965ZM649.999 35.5415C648.927 36.3492 647.881 37.1725 646.86 38.0114L648.129 39.5567C649.128 38.7359 650.153 37.9299 651.203 37.1386L649.999 35.5415ZM643.794 40.6474C642.797 41.5458 641.827 42.4612 640.885 43.3936L642.293 44.8146C643.211 43.905 644.158 43.0113 645.133 42.1336L643.794 40.6474ZM638.083 46.3122C637.176 47.3066 636.3 48.3192 635.455 49.3502L637.003 50.6176C637.824 49.6145 638.677 48.6286 639.561 47.6599L638.083 46.3122ZM632.984 52.5437C632.19 53.6311 631.429 54.7376 630.703 55.8636L632.383 56.9479C633.088 55.8547 633.827 54.7798 634.599 53.7231L632.984 52.5437ZM628.616 59.3179C627.955 60.4879 627.33 61.6776 626.741 62.887L628.539 63.7629C629.111 62.5899 629.717 61.4359 630.357 60.3007L628.616 59.3179ZM625.083 66.5725C624.572 67.8077 624.097 69.0622 623.658 70.3363L625.549 70.9877C625.974 69.7518 626.435 68.535 626.931 67.3371L625.083 66.5725ZM622.454 74.2067C622.098 75.4857 621.777 76.7833 621.492 78.0996L623.447 78.5229C623.724 77.2443 624.035 75.9844 624.381 74.7431L622.454 74.2067ZM620.748 82.081C620.542 83.388 620.37 84.7125 620.233 86.0546L622.222 86.2587C622.356 84.9521 622.524 83.6634 622.724 82.3924L620.748 82.081ZM619.925 90.0888C619.859 91.4059 619.825 92.7391 619.823 94.0885L621.823 94.0912C621.825 92.7738 621.858 91.4731 621.923 90.1891L619.925 90.0888ZM619.913 98.1345C619.972 99.4457 620.061 100.772 620.18 102.112L622.172 101.936C622.056 100.623 621.969 99.3261 621.911 98.0441L619.913 98.1345ZM620.622 106.15C620.791 107.442 620.986 108.748 621.208 110.068L623.181 109.735C622.962 108.44 622.771 107.159 622.606 105.891L620.622 106.15ZM621.958 114.066C622.22 115.339 622.507 116.625 622.819 117.923L624.764 117.456C624.457 116.179 624.175 114.914 623.917 113.662L621.958 114.066ZM623.822 121.825C624.002 122.481 624.187 123.14 624.379 123.802L626.3 123.245C626.111 122.593 625.928 121.943 625.751 121.297L623.822 121.825ZM624.379 123.802C624.566 124.448 624.763 125.091 624.968 125.731L626.872 125.119C626.673 124.498 626.482 123.873 626.3 123.245L624.379 123.802ZM626.308 129.528C626.791 130.78 627.308 132.019 627.86 133.244L629.684 132.423C629.147 131.231 628.643 130.026 628.175 128.809L626.308 129.528ZM629.605 136.852C630.22 138.042 630.869 139.218 631.55 140.382L633.276 139.371C632.612 138.237 631.981 137.091 631.382 135.933L629.605 136.852ZM633.664 143.791C634.392 144.903 635.15 146.002 635.939 147.09L637.558 145.915C636.788 144.853 636.047 143.78 635.337 142.695L633.664 143.791ZM638.393 150.314C639.212 151.342 640.059 152.358 640.932 153.362L642.442 152.05C641.586 151.066 640.758 150.072 639.957 149.067L638.393 150.314ZM643.632 156.343C644.544 157.311 645.481 158.268 646.444 159.214L647.846 157.787C646.901 156.859 645.981 155.92 645.087 154.972L643.632 156.343ZM649.327 161.949C650.312 162.85 651.319 163.742 652.35 164.624L653.65 163.104C652.636 162.237 651.646 161.36 650.678 160.474L649.327 161.949ZM655.417 167.166C656.444 167.991 657.491 168.806 658.557 169.613L659.763 168.018C658.712 167.223 657.681 166.419 656.67 165.607L655.417 167.166ZM661.816 172.006C662.883 172.767 663.969 173.52 665.072 174.265L666.191 172.608C665.102 171.872 664.031 171.129 662.977 170.378L661.816 172.006ZM668.397 176.452C669.523 177.173 670.666 177.886 671.825 178.591L672.864 176.883C671.718 176.185 670.588 175.48 669.476 174.768L668.397 176.452ZM675.23 180.613C676.368 181.272 677.52 181.924 678.687 182.569L679.655 180.819C678.499 180.18 677.358 179.535 676.233 178.882L675.23 180.613ZM682.232 184.484C683.396 185.098 684.574 185.706 685.765 186.307L686.666 184.522C685.486 183.926 684.319 183.323 683.165 182.715L682.232 184.484ZM689.315 188.061C690.511 188.639 691.719 189.211 692.94 189.777L693.781 187.963C692.57 187.401 691.371 186.834 690.185 186.26L689.315 188.061ZM696.589 191.434C697.783 191.965 698.987 192.49 700.203 193.01L700.989 191.171C699.782 190.655 698.586 190.133 697.401 189.606L696.589 191.434ZM703.882 194.552C705.119 195.06 706.367 195.563 707.625 196.06L708.36 194.2C707.11 193.706 705.871 193.207 704.643 192.702L703.882 194.552ZM711.298 197.485C712.528 197.953 713.766 198.416 715.014 198.874L715.703 196.997C714.463 196.542 713.232 196.081 712.01 195.616L711.298 197.485ZM718.784 200.233C720.034 200.675 721.294 201.113 722.562 201.545L723.208 199.652C721.947 199.222 720.694 198.787 719.451 198.347L718.784 200.233ZM726.301 202.799C727.555 203.212 728.817 203.62 730.087 204.024L730.693 202.119C729.43 201.717 728.174 201.31 726.927 200.899L726.301 202.799ZM733.92 205.223C735.179 205.609 736.445 205.992 737.719 206.37L738.288 204.452C737.02 204.076 735.76 203.696 734.507 203.311L733.92 205.223ZM741.515 207.478C742.787 207.843 744.066 208.204 745.351 208.56L745.886 206.633C744.606 206.278 743.333 205.919 742.066 205.555L741.515 207.478ZM749.227 209.618C750.495 209.958 751.768 210.294 753.048 210.626L753.551 208.69C752.276 208.36 751.008 208.025 749.745 207.686L749.227 209.618ZM756.885 211.606C758.17 211.929 759.46 212.247 760.757 212.562L761.229 210.619C759.938 210.305 758.652 209.988 757.372 209.666L756.885 211.606ZM764.661 213.496C765.938 213.796 767.22 214.092 768.508 214.385L768.951 212.435C767.669 212.143 766.391 211.848 765.119 211.549L764.661 213.496ZM772.374 215.251C773.668 215.536 774.967 215.817 776.27 216.095L776.687 214.139C775.388 213.862 774.094 213.582 772.804 213.298L772.374 215.251ZM780.193 216.918C781.48 217.183 782.772 217.445 784.067 217.704L784.459 215.743C783.167 215.485 781.88 215.224 780.597 214.959L780.193 216.918ZM787.955 218.467C789.255 218.719 790.56 218.966 791.868 219.211L792.235 217.245C790.931 217.001 789.631 216.754 788.335 216.504L787.955 218.467ZM795.804 219.934C797.1 220.169 798.401 220.4 799.705 220.628L800.049 218.658C798.749 218.43 797.452 218.2 796.159 217.966L795.804 219.934ZM803.609 221.299C804.913 221.52 806.222 221.737 807.533 221.952L807.856 219.978C806.548 219.764 805.243 219.547 803.942 219.327L803.609 221.299ZM811.477 222.585C812.783 222.792 814.092 222.995 815.404 223.195L815.706 221.218C814.397 221.018 813.091 220.816 811.789 220.61L811.477 222.585ZM819.32 223.783C820.628 223.975 821.939 224.165 823.253 224.352L823.535 222.372C822.224 222.186 820.917 221.996 819.612 221.804L819.32 223.783ZM827.202 224.904C828.516 225.085 829.832 225.262 831.151 225.437L831.413 223.454C830.098 223.28 828.784 223.103 827.474 222.923L827.202 224.904ZM835.077 225.947C836.388 226.114 837.701 226.279 839.017 226.441L839.261 224.456C837.949 224.294 836.638 224.13 835.33 223.963L835.077 225.947ZM842.969 226.917C844.289 227.074 845.61 227.227 846.934 227.378L847.16 225.391C845.839 225.24 844.521 225.087 843.204 224.931L842.969 226.917ZM850.871 227.817C852.184 227.961 853.5 228.102 854.816 228.24L855.026 226.251C853.711 226.113 852.399 225.973 851.088 225.829L850.871 227.817ZM858.772 228.648C860.092 228.781 861.413 228.911 862.736 229.039L862.929 227.048C861.609 226.921 860.29 226.791 858.973 226.658L858.772 228.648ZM866.692 229.413C868.008 229.535 869.326 229.654 870.644 229.771L870.82 227.778C869.505 227.662 868.19 227.543 866.877 227.422L866.692 229.413ZM874.603 230.113C875.923 230.224 877.245 230.333 878.568 230.44L878.728 228.446C877.408 228.34 876.089 228.231 874.771 228.12L874.603 230.113ZM882.535 230.751C883.853 230.852 885.173 230.951 886.493 231.047L886.638 229.052C885.32 228.956 884.004 228.858 882.687 228.757L882.535 230.751ZM890.455 231.328C891.777 231.419 893.099 231.508 894.421 231.594L894.552 229.598C893.232 229.512 891.912 229.424 890.593 229.333L890.455 231.328ZM898.39 231.846C899.712 231.927 901.034 232.006 902.357 232.083L902.473 230.086C901.152 230.009 899.832 229.931 898.513 229.849L898.39 231.846ZM906.324 232.305C907.647 232.377 908.97 232.446 910.292 232.513L910.394 230.516C909.073 230.449 907.753 230.38 906.433 230.308L906.324 232.305ZM914.261 232.708C915.584 232.77 916.907 232.83 918.231 232.888L918.318 230.89C916.997 230.832 915.676 230.772 914.355 230.71L914.261 232.708ZM922.204 233.054C923.528 233.107 924.852 233.158 926.176 233.207L926.249 231.208C924.928 231.16 923.606 231.109 922.284 231.056L922.204 233.054ZM930.145 233.346C931.467 233.39 932.789 233.432 934.11 233.471L934.17 231.472C932.851 231.432 931.531 231.391 930.211 231.347L930.145 233.346ZM938.09 233.583C939.416 233.618 940.742 233.651 942.066 233.682L942.113 231.682C940.79 231.652 939.467 231.619 938.143 231.584L938.09 233.583ZM946.038 233.767C947.36 233.793 948.682 233.817 950.003 233.838L950.036 231.839C948.717 231.817 947.398 231.793 946.077 231.767L946.038 233.767ZM953.978 233.897C955.307 233.915 956.634 233.93 957.961 233.943L957.98 231.943C956.656 231.93 955.331 231.915 954.004 231.897L953.978 233.897ZM961.935 233.975C963.258 233.983 964.58 233.99 965.901 233.994L965.907 231.994C964.589 231.99 963.269 231.983 961.948 231.975L961.935 233.975ZM969.864 234C971.196 234 972.526 233.997 973.854 233.993L973.847 231.993C972.521 231.997 971.194 232 969.864 232L969.864 234ZM977.833 233.973C979.158 233.964 980.48 233.953 981.8 233.939L981.78 231.94C980.462 231.953 979.142 231.964 977.82 231.973L977.833 233.973ZM985.755 233.893C987.087 233.876 988.417 233.856 989.745 233.833L989.712 231.834C988.386 231.856 987.058 231.876 985.728 231.893L985.755 233.893ZM993.729 233.761C995.055 233.734 996.378 233.705 997.698 233.675L997.651 231.675C996.333 231.706 995.012 231.734 993.689 231.761L993.729 233.761ZM1001.65 233.576C1002.98 233.54 1004.31 233.503 1005.63 233.463L1005.57 231.464C1004.25 231.504 1002.92 231.541 1001.6 231.577L1001.65 233.576ZM1009.62 233.337C1010.95 233.292 1012.27 233.246 1013.59 233.197L1013.52 231.199C1012.2 231.247 1010.88 231.293 1009.55 231.338L1009.62 233.337ZM1017.54 233.045C1018.87 232.991 1020.19 232.936 1021.51 232.878L1021.42 230.88C1020.1 230.938 1018.78 230.993 1017.46 231.046L1017.54 233.045ZM1025.5 232.697C1026.83 232.634 1028.15 232.569 1029.47 232.502L1029.37 230.504C1028.06 230.571 1026.73 230.636 1025.41 230.699L1025.5 232.697ZM1033.42 232.294C1034.75 232.222 1036.07 232.148 1037.38 232.072L1037.26 230.075C1035.95 230.151 1034.63 230.225 1033.31 230.297L1033.42 232.294ZM1041.38 231.833C1042.71 231.751 1044.03 231.666 1045.35 231.58L1045.22 229.584C1043.9 229.671 1042.58 229.755 1041.25 229.836L1041.38 231.833ZM1049.29 231.315C1050.61 231.223 1051.93 231.129 1053.24 231.033L1053.1 229.039C1051.79 229.134 1050.47 229.228 1049.15 229.32L1049.29 231.315ZM1057.24 230.733C1058.57 230.631 1059.89 230.526 1061.2 230.42L1061.04 228.426C1059.73 228.533 1058.41 228.637 1057.09 228.739L1057.24 230.733ZM1065.13 230.093C1065.79 230.038 1066.44 229.982 1067.08 229.925L1066.91 227.933C1066.26 227.989 1065.61 228.045 1064.96 228.1L1065.13 230.093ZM1067.08 229.925C1067.74 229.867 1068.4 229.809 1069.06 229.751L1068.88 227.758C1068.23 227.817 1067.57 227.875 1066.91 227.933L1067.08 229.925ZM1073.03 229.39C1074.35 229.267 1075.68 229.141 1077.01 229.013L1076.81 227.022C1075.49 227.15 1074.16 227.275 1072.84 227.398L1073.03 229.39ZM1081 228.62C1082.32 228.487 1083.64 228.352 1084.97 228.214L1084.76 226.225C1083.44 226.363 1082.12 226.497 1080.8 226.63L1081 228.62ZM1088.93 227.796C1090.25 227.653 1091.58 227.509 1092.9 227.362L1092.68 225.374C1091.36 225.521 1090.04 225.665 1088.72 225.807L1088.93 227.796ZM1096.89 226.913C1098.21 226.762 1099.53 226.609 1100.85 226.453L1100.61 224.467C1099.3 224.622 1097.98 224.775 1096.66 224.926L1096.89 226.913ZM1104.81 225.98C1106.13 225.82 1107.45 225.657 1108.78 225.492L1108.53 223.508C1107.21 223.672 1105.89 223.834 1104.57 223.994L1104.81 225.98ZM1112.75 224.99C1114.07 224.822 1115.39 224.652 1116.71 224.479L1116.45 222.496C1115.13 222.668 1113.81 222.839 1112.5 223.007L1112.75 224.99ZM1120.66 223.954C1121.98 223.777 1123.3 223.597 1124.62 223.416L1124.35 221.434C1123.03 221.616 1121.71 221.795 1120.4 221.972L1120.66 223.954ZM1128.59 222.864C1129.91 222.679 1131.22 222.492 1132.54 222.303L1132.25 220.323C1130.94 220.512 1129.62 220.699 1128.31 220.883L1128.59 222.864ZM1136.49 221.728C1137.8 221.535 1139.12 221.339 1140.44 221.141L1140.14 219.163C1138.83 219.361 1137.51 219.556 1136.2 219.749L1136.49 221.728ZM1144.4 220.541C1145.71 220.34 1147.03 220.137 1148.34 219.932L1148.03 217.956C1146.72 218.161 1145.41 218.363 1144.09 218.564L1144.4 220.541ZM1152.28 219.309C1153.6 219.1 1154.91 218.889 1156.23 218.675L1155.91 216.701C1154.6 216.914 1153.28 217.125 1151.97 217.334L1152.28 219.309ZM1160.18 218.029C1161.49 217.812 1162.8 217.593 1164.11 217.372L1163.78 215.4C1162.47 215.62 1161.16 215.839 1159.85 216.056L1160.18 218.029ZM1168.05 216.703C1169.36 216.478 1170.68 216.252 1171.99 216.023L1171.64 214.053C1170.33 214.281 1169.02 214.507 1167.71 214.732L1168.05 216.703ZM1175.92 215.331C1177.23 215.099 1178.55 214.864 1179.86 214.628L1179.5 212.66C1178.19 212.896 1176.88 213.13 1175.57 213.362L1175.92 215.331ZM1183.79 213.913C1185.1 213.673 1186.41 213.431 1187.71 213.188L1187.35 211.221C1186.04 211.465 1184.73 211.706 1183.43 211.946L1183.79 213.913ZM1191.64 212.451C1192.95 212.203 1194.26 211.953 1195.57 211.702L1195.19 209.738C1193.88 209.989 1192.57 210.238 1191.27 210.486L1191.64 212.451ZM1199.49 210.942C1200.8 210.687 1202.1 210.43 1203.41 210.171L1203.02 208.209C1201.71 208.468 1200.41 208.724 1199.11 208.979L1199.49 210.942ZM1207.32 209.39C1208.63 209.127 1209.93 208.862 1211.24 208.595L1210.84 206.635C1209.54 206.902 1208.23 207.166 1206.92 207.429L1207.32 209.39ZM1215.16 207.789C1216.46 207.519 1217.76 207.247 1219.06 206.974L1218.65 205.017C1217.35 205.29 1216.05 205.561 1214.75 205.831L1215.16 207.789ZM1222.96 206.147C1224.27 205.869 1225.58 205.588 1226.88 205.306L1226.46 203.351C1225.15 203.633 1223.85 203.913 1222.55 204.191L1222.96 206.147ZM1230.78 204.455C1232.08 204.17 1233.38 203.883 1234.68 203.594L1234.25 201.642C1232.95 201.93 1231.65 202.217 1230.36 202.502L1230.78 204.455ZM1238.57 202.722C1239.88 202.427 1241.18 202.131 1242.48 201.834L1242.03 199.884C1240.73 200.181 1239.43 200.477 1238.13 200.771L1238.57 202.722ZM1246.37 200.936C1247.67 200.635 1248.96 200.333 1250.26 200.029L1249.8 198.082C1248.51 198.386 1247.22 198.688 1245.92 198.988L1246.37 200.936ZM1254.14 199.11C1255.44 198.799 1256.74 198.487 1258.03 198.174L1257.56 196.23C1256.27 196.543 1254.97 196.854 1253.67 197.164L1254.14 199.11ZM1261.92 197.228C1263.21 196.912 1264.5 196.594 1265.79 196.274L1265.3 194.333C1264.02 194.652 1262.73 194.97 1261.44 195.286L1261.92 197.228ZM1269.66 195.305C1270.96 194.978 1272.25 194.65 1273.55 194.32L1273.05 192.382C1271.76 192.711 1270.47 193.039 1269.17 193.366L1269.66 195.305ZM1277.41 193.326C1278.7 192.993 1279.98 192.658 1281.27 192.322L1280.76 190.388C1279.48 190.723 1278.2 191.057 1276.91 191.389L1277.41 193.326ZM1285.13 191.301C1286.43 190.957 1287.72 190.611 1289.01 190.264L1288.49 188.333C1287.2 188.68 1285.91 189.024 1284.62 189.368L1285.13 191.301ZM1292.86 189.219C1294.14 188.869 1295.42 188.518 1296.69 188.165L1296.15 186.238C1294.88 186.59 1293.61 186.941 1292.33 187.29L1292.86 189.219ZM1300.56 187.087C1301.84 186.725 1303.13 186.361 1304.41 185.997L1303.86 184.073C1302.58 184.437 1301.3 184.8 1300.02 185.161L1300.56 187.087ZM1308.24 184.898C1309.52 184.529 1310.79 184.159 1312.06 183.788L1311.5 181.868C1310.23 182.239 1308.96 182.609 1307.69 182.977L1308.24 184.898ZM1315.92 182.65C1317.2 182.269 1318.48 181.887 1319.75 181.504L1319.17 179.589C1317.9 179.971 1316.63 180.353 1315.35 180.732L1315.92 182.65ZM1323.55 180.349C1324.83 179.958 1326.11 179.565 1327.38 179.172L1326.78 177.261C1325.52 177.654 1324.24 178.046 1322.97 178.437L1323.55 180.349ZM1331.21 177.974C1332.48 177.573 1333.75 177.171 1335.01 176.768L1334.4 174.863C1333.14 175.265 1331.88 175.666 1330.61 176.066L1331.21 177.974ZM1338.78 175.554C1340.07 175.137 1341.34 174.719 1342.62 174.3L1341.99 172.4C1340.72 172.819 1339.45 173.236 1338.16 173.651L1338.78 175.554ZM1346.41 173.039C1347.67 172.617 1348.93 172.194 1350.17 171.77L1349.53 169.876C1348.29 170.299 1347.04 170.721 1345.78 171.142L1346.41 173.039ZM1353.97 170.47C1355.24 170.031 1356.5 169.59 1357.76 169.148L1357.1 167.261C1355.84 167.702 1354.58 168.142 1353.31 168.58L1353.97 170.47ZM1361.51 167.819C1362.77 167.371 1364.01 166.921 1365.25 166.471L1364.57 164.591C1363.33 165.04 1362.09 165.488 1360.84 165.936L1361.51 167.819ZM1369.04 165.082C1370.29 164.618 1371.54 164.153 1372.78 163.686L1372.07 161.815C1370.84 162.28 1369.6 162.743 1368.35 163.206L1369.04 165.082ZM1376.47 162.282C1377.74 161.796 1379 161.308 1380.25 160.82L1379.52 158.957C1378.28 159.444 1377.02 159.93 1375.76 160.414L1376.47 162.282ZM1383.97 159.351C1385.2 158.86 1386.42 158.368 1387.63 157.875L1386.88 156.023C1385.67 156.514 1384.45 157.004 1383.23 157.493L1383.97 159.351ZM1391.38 156.337C1392.62 155.822 1393.85 155.305 1395.07 154.787L1394.29 152.946C1393.07 153.462 1391.84 153.977 1390.61 154.49L1391.38 156.337ZM1398.69 153.231C1399.94 152.689 1401.18 152.147 1402.4 151.603L1401.59 149.775C1400.37 150.316 1399.14 150.857 1397.9 151.396L1398.69 153.231ZM1406.05 149.963C1407.26 149.413 1408.46 148.863 1409.64 148.312L1408.8 146.499C1407.62 147.048 1406.43 147.595 1405.23 148.142L1406.05 149.963ZM1413.31 146.576C1414.52 145.997 1415.72 145.417 1416.9 144.835L1416.02 143.041C1414.84 143.619 1413.65 144.196 1412.45 144.773L1413.31 146.576ZM1420.46 143.056C1421.68 142.44 1422.88 141.824 1424.06 141.206L1423.14 139.433C1421.96 140.047 1420.77 140.66 1419.56 141.272L1420.46 143.056ZM1427.56 139.351C1428.76 138.703 1429.94 138.054 1431.1 137.405L1430.13 135.659C1428.97 136.303 1427.8 136.947 1426.61 137.591L1427.56 139.351ZM1434.58 135.425C1435.75 134.75 1436.89 134.074 1438.01 133.398L1436.98 131.685C1435.87 132.355 1434.74 133.025 1433.58 133.695L1434.58 135.425ZM1441.46 131.274C1442.59 130.564 1443.7 129.853 1444.78 129.141L1443.68 127.471C1442.61 128.175 1441.51 128.878 1440.4 129.582L1441.46 131.274ZM1448.16 126.85C1449.27 126.086 1450.34 125.321 1451.38 124.556L1450.2 122.943C1449.17 123.698 1448.11 124.453 1447.02 125.207L1448.16 126.85ZM1454.64 122.086C1455.7 121.257 1456.73 120.428 1457.71 119.597L1456.43 118.066C1455.46 118.88 1454.45 119.696 1453.41 120.511L1454.64 122.086ZM1460.8 116.896C1461.81 115.978 1462.77 115.06 1463.68 114.142L1462.27 112.73C1461.38 113.625 1460.44 114.521 1459.46 115.418L1460.8 116.896ZM1466.49 111.165C1466.93 110.669 1467.36 110.173 1467.77 109.676L1466.23 108.397C1465.83 108.877 1465.42 109.357 1464.99 109.838L1466.49 111.165Z" fill="url(#paint0_linear_76_2410)"/>
<defs>
<linearGradient id="paint0_linear_76_2410" x1="-40" y1="117" x2="6312" y2="117" gradientUnits="userSpaceOnUse">
<stop stop-color="#9579df"/>
<stop offset="1" stop-color="white" stop-opacity="0"/>
</linearGradient>
</defs>
</svg>
